<?xml version="1.0" encoding="utf-8" standalone="no"?>
<!DOCTYPE svg PUBLIC "-//W3C//DTD SVG 1.1//EN"
  "http://www.w3.org/Graphics/SVG/1.1/DTD/svg11.dtd">
<!-- Created with matplotlib (https://matplotlib.org/) -->
<svg height="277.314375pt" version="1.1" viewBox="0 0 383.6525 277.314375" width="383.6525pt" xmlns="http://www.w3.org/2000/svg" xmlns:xlink="http://www.w3.org/1999/xlink">
 <metadata>
  <rdf:RDF xmlns:cc="http://creativecommons.org/ns#" xmlns:dc="http://purl.org/dc/elements/1.1/" xmlns:rdf="http://www.w3.org/1999/02/22-rdf-syntax-ns#">
   <cc:Work>
    <dc:type rdf:resource="http://purl.org/dc/dcmitype/StillImage"/>
    <dc:date>2020-12-18T21:29:22.975571</dc:date>
    <dc:format>image/svg+xml</dc:format>
    <dc:creator>
     <cc:Agent>
      <dc:title>Matplotlib v3.3.3, https://matplotlib.org/</dc:title>
     </cc:Agent>
    </dc:creator>
   </cc:Work>
  </rdf:RDF>
 </metadata>
 <defs>
  <style type="text/css">*{stroke-linecap:butt;stroke-linejoin:round;}</style>
 </defs>
 <g id="figure_1">
  <g id="patch_1">
   <path d="M 0 277.314375 
L 383.6525 277.314375 
L 383.6525 0 
L 0 0 
z
" style="fill:none;"/>
  </g>
  <g id="axes_1">
   <g id="patch_2">
    <path d="M 34.240625 239.758125 
L 369.040625 239.758125 
L 369.040625 22.318125 
L 34.240625 22.318125 
z
" style="fill:#ffffff;"/>
   </g>
   <g id="PathCollection_1">
    <defs>
     <path d="M 0 3 
C 0.795609 3 1.55874 2.683901 2.12132 2.12132 
C 2.683901 1.55874 3 0.795609 3 0 
C 3 -0.795609 2.683901 -1.55874 2.12132 -2.12132 
C 1.55874 -2.683901 0.795609 -3 0 -3 
C -0.795609 -3 -1.55874 -2.683901 -2.12132 -2.12132 
C -2.683901 -1.55874 -3 -0.795609 -3 0 
C -3 0.795609 -2.683901 1.55874 -2.12132 2.12132 
C -1.55874 2.683901 -0.795609 3 0 3 
z
" id="m3235cccdc3" style="stroke:#1f77b4;"/>
    </defs>
    <g clip-path="url(#peb7207bf69)">
     <use style="fill:#1f77b4;stroke:#1f77b4;" x="353.822443" xlink:href="#m3235cccdc3" y="154.123675"/>
     <use style="fill:#1f77b4;stroke:#1f77b4;" x="351.679037" xlink:href="#m3235cccdc3" y="226.003923"/>
     <use style="fill:#1f77b4;stroke:#1f77b4;" x="350.607334" xlink:href="#m3235cccdc3" y="221.516482"/>
     <use style="fill:#1f77b4;stroke:#1f77b4;" x="350.071483" xlink:href="#m3235cccdc3" y="226.385908"/>
     <use style="fill:#1f77b4;stroke:#1f77b4;" x="348.99978" xlink:href="#m3235cccdc3" y="221.676687"/>
     <use style="fill:#1f77b4;stroke:#1f77b4;" x="348.99978" xlink:href="#m3235cccdc3" y="192.030772"/>
     <use style="fill:#1f77b4;stroke:#1f77b4;" x="347.392226" xlink:href="#m3235cccdc3" y="206.764856"/>
     <use style="fill:#1f77b4;stroke:#1f77b4;" x="344.177117" xlink:href="#m3235cccdc3" y="216.617719"/>
     <use style="fill:#1f77b4;stroke:#1f77b4;" x="342.033711" xlink:href="#m3235cccdc3" y="188.697143"/>
     <use style="fill:#1f77b4;stroke:#1f77b4;" x="337.211048" xlink:href="#m3235cccdc3" y="213.603651"/>
     <use style="fill:#1f77b4;stroke:#1f77b4;" x="335.067642" xlink:href="#m3235cccdc3" y="219.112693"/>
     <use style="fill:#1f77b4;stroke:#1f77b4;" x="335.067642" xlink:href="#m3235cccdc3" y="212.114624"/>
     <use style="fill:#1f77b4;stroke:#1f77b4;" x="333.460087" xlink:href="#m3235cccdc3" y="32.201761"/>
     <use style="fill:#1f77b4;stroke:#1f77b4;" x="332.924236" xlink:href="#m3235cccdc3" y="224.577566"/>
     <use style="fill:#1f77b4;stroke:#1f77b4;" x="331.852533" xlink:href="#m3235cccdc3" y="228.252651"/>
     <use style="fill:#1f77b4;stroke:#1f77b4;" x="325.422315" xlink:href="#m3235cccdc3" y="224.142927"/>
     <use style="fill:#1f77b4;stroke:#1f77b4;" x="324.350612" xlink:href="#m3235cccdc3" y="222.500427"/>
     <use style="fill:#1f77b4;stroke:#1f77b4;" x="321.135503" xlink:href="#m3235cccdc3" y="226.183777"/>
     <use style="fill:#1f77b4;stroke:#1f77b4;" x="320.599652" xlink:href="#m3235cccdc3" y="174.940765"/>
     <use style="fill:#1f77b4;stroke:#1f77b4;" x="317.920395" xlink:href="#m3235cccdc3" y="228.459735"/>
     <use style="fill:#1f77b4;stroke:#1f77b4;" x="315.776989" xlink:href="#m3235cccdc3" y="213.576749"/>
     <use style="fill:#1f77b4;stroke:#1f77b4;" x="315.776989" xlink:href="#m3235cccdc3" y="225.653354"/>
     <use style="fill:#1f77b4;stroke:#1f77b4;" x="315.776989" xlink:href="#m3235cccdc3" y="229.020344"/>
     <use style="fill:#1f77b4;stroke:#1f77b4;" x="314.705286" xlink:href="#m3235cccdc3" y="216.055961"/>
     <use style="fill:#1f77b4;stroke:#1f77b4;" x="314.169434" xlink:href="#m3235cccdc3" y="212.070837"/>
     <use style="fill:#1f77b4;stroke:#1f77b4;" x="313.633583" xlink:href="#m3235cccdc3" y="221.363337"/>
     <use style="fill:#1f77b4;stroke:#1f77b4;" x="313.097731" xlink:href="#m3235cccdc3" y="202.201692"/>
     <use style="fill:#1f77b4;stroke:#1f77b4;" x="312.026028" xlink:href="#m3235cccdc3" y="212.822904"/>
     <use style="fill:#1f77b4;stroke:#1f77b4;" x="309.882622" xlink:href="#m3235cccdc3" y="217.444086"/>
     <use style="fill:#1f77b4;stroke:#1f77b4;" x="309.882622" xlink:href="#m3235cccdc3" y="157.994624"/>
     <use style="fill:#1f77b4;stroke:#1f77b4;" x="309.346771" xlink:href="#m3235cccdc3" y="226.857766"/>
     <use style="fill:#1f77b4;stroke:#1f77b4;" x="307.203365" xlink:href="#m3235cccdc3" y="223.127154"/>
     <use style="fill:#1f77b4;stroke:#1f77b4;" x="302.916553" xlink:href="#m3235cccdc3" y="198.291143"/>
     <use style="fill:#1f77b4;stroke:#1f77b4;" x="302.380702" xlink:href="#m3235cccdc3" y="218.655175"/>
     <use style="fill:#1f77b4;stroke:#1f77b4;" x="301.84485" xlink:href="#m3235cccdc3" y="147.815194"/>
     <use style="fill:#1f77b4;stroke:#1f77b4;" x="301.84485" xlink:href="#m3235cccdc3" y="222.464631"/>
     <use style="fill:#1f77b4;stroke:#1f77b4;" x="301.84485" xlink:href="#m3235cccdc3" y="229.726024"/>
     <use style="fill:#1f77b4;stroke:#1f77b4;" x="300.237296" xlink:href="#m3235cccdc3" y="222.76958"/>
     <use style="fill:#1f77b4;stroke:#1f77b4;" x="297.558039" xlink:href="#m3235cccdc3" y="206.838856"/>
     <use style="fill:#1f77b4;stroke:#1f77b4;" x="296.486336" xlink:href="#m3235cccdc3" y="211.403389"/>
     <use style="fill:#1f77b4;stroke:#1f77b4;" x="295.414633" xlink:href="#m3235cccdc3" y="199.639039"/>
     <use style="fill:#1f77b4;stroke:#1f77b4;" x="295.414633" xlink:href="#m3235cccdc3" y="145.201283"/>
     <use style="fill:#1f77b4;stroke:#1f77b4;" x="294.34293" xlink:href="#m3235cccdc3" y="219.413345"/>
     <use style="fill:#1f77b4;stroke:#1f77b4;" x="294.34293" xlink:href="#m3235cccdc3" y="199.562138"/>
     <use style="fill:#1f77b4;stroke:#1f77b4;" x="294.34293" xlink:href="#m3235cccdc3" y="220.242722"/>
     <use style="fill:#1f77b4;stroke:#1f77b4;" x="292.199524" xlink:href="#m3235cccdc3" y="211.593396"/>
     <use style="fill:#1f77b4;stroke:#1f77b4;" x="292.199524" xlink:href="#m3235cccdc3" y="223.87465"/>
     <use style="fill:#1f77b4;stroke:#1f77b4;" x="289.520266" xlink:href="#m3235cccdc3" y="209.407557"/>
     <use style="fill:#1f77b4;stroke:#1f77b4;" x="288.984415" xlink:href="#m3235cccdc3" y="190.946227"/>
     <use style="fill:#1f77b4;stroke:#1f77b4;" x="288.984415" xlink:href="#m3235cccdc3" y="223.679662"/>
     <use style="fill:#1f77b4;stroke:#1f77b4;" x="288.448564" xlink:href="#m3235cccdc3" y="226.752295"/>
     <use style="fill:#1f77b4;stroke:#1f77b4;" x="288.448564" xlink:href="#m3235cccdc3" y="224.067723"/>
     <use style="fill:#1f77b4;stroke:#1f77b4;" x="287.912712" xlink:href="#m3235cccdc3" y="220.54269"/>
     <use style="fill:#1f77b4;stroke:#1f77b4;" x="287.376861" xlink:href="#m3235cccdc3" y="221.260739"/>
     <use style="fill:#1f77b4;stroke:#1f77b4;" x="287.376861" xlink:href="#m3235cccdc3" y="198.67934"/>
     <use style="fill:#1f77b4;stroke:#1f77b4;" x="285.769306" xlink:href="#m3235cccdc3" y="226.095547"/>
     <use style="fill:#1f77b4;stroke:#1f77b4;" x="285.233455" xlink:href="#m3235cccdc3" y="227.831175"/>
     <use style="fill:#1f77b4;stroke:#1f77b4;" x="284.161752" xlink:href="#m3235cccdc3" y="212.394586"/>
     <use style="fill:#1f77b4;stroke:#1f77b4;" x="284.161752" xlink:href="#m3235cccdc3" y="189.519405"/>
     <use style="fill:#1f77b4;stroke:#1f77b4;" x="283.090049" xlink:href="#m3235cccdc3" y="227.940724"/>
     <use style="fill:#1f77b4;stroke:#1f77b4;" x="282.554197" xlink:href="#m3235cccdc3" y="225.623004"/>
     <use style="fill:#1f77b4;stroke:#1f77b4;" x="282.554197" xlink:href="#m3235cccdc3" y="219.651819"/>
     <use style="fill:#1f77b4;stroke:#1f77b4;" x="279.87494" xlink:href="#m3235cccdc3" y="208.882799"/>
     <use style="fill:#1f77b4;stroke:#1f77b4;" x="278.803237" xlink:href="#m3235cccdc3" y="222.814653"/>
     <use style="fill:#1f77b4;stroke:#1f77b4;" x="278.267386" xlink:href="#m3235cccdc3" y="229.195929"/>
     <use style="fill:#1f77b4;stroke:#1f77b4;" x="273.980574" xlink:href="#m3235cccdc3" y="226.527613"/>
     <use style="fill:#1f77b4;stroke:#1f77b4;" x="272.373019" xlink:href="#m3235cccdc3" y="96.241262"/>
     <use style="fill:#1f77b4;stroke:#1f77b4;" x="271.837168" xlink:href="#m3235cccdc3" y="38.13436"/>
     <use style="fill:#1f77b4;stroke:#1f77b4;" x="270.765465" xlink:href="#m3235cccdc3" y="216.605841"/>
     <use style="fill:#1f77b4;stroke:#1f77b4;" x="269.693762" xlink:href="#m3235cccdc3" y="212.361828"/>
     <use style="fill:#1f77b4;stroke:#1f77b4;" x="269.157911" xlink:href="#m3235cccdc3" y="182.026873"/>
     <use style="fill:#1f77b4;stroke:#1f77b4;" x="269.157911" xlink:href="#m3235cccdc3" y="229.18542"/>
     <use style="fill:#1f77b4;stroke:#1f77b4;" x="266.478653" xlink:href="#m3235cccdc3" y="218.534926"/>
     <use style="fill:#1f77b4;stroke:#1f77b4;" x="265.40695" xlink:href="#m3235cccdc3" y="227.134554"/>
     <use style="fill:#1f77b4;stroke:#1f77b4;" x="264.871099" xlink:href="#m3235cccdc3" y="226.922981"/>
     <use style="fill:#1f77b4;stroke:#1f77b4;" x="264.871099" xlink:href="#m3235cccdc3" y="226.376248"/>
     <use style="fill:#1f77b4;stroke:#1f77b4;" x="264.335247" xlink:href="#m3235cccdc3" y="216.062884"/>
     <use style="fill:#1f77b4;stroke:#1f77b4;" x="263.799396" xlink:href="#m3235cccdc3" y="222.897464"/>
     <use style="fill:#1f77b4;stroke:#1f77b4;" x="263.263544" xlink:href="#m3235cccdc3" y="224.093557"/>
     <use style="fill:#1f77b4;stroke:#1f77b4;" x="263.263544" xlink:href="#m3235cccdc3" y="227.49117"/>
     <use style="fill:#1f77b4;stroke:#1f77b4;" x="262.727693" xlink:href="#m3235cccdc3" y="225.824698"/>
     <use style="fill:#1f77b4;stroke:#1f77b4;" x="261.65599" xlink:href="#m3235cccdc3" y="152.042951"/>
     <use style="fill:#1f77b4;stroke:#1f77b4;" x="261.120138" xlink:href="#m3235cccdc3" y="209.986309"/>
     <use style="fill:#1f77b4;stroke:#1f77b4;" x="259.512584" xlink:href="#m3235cccdc3" y="226.087145"/>
     <use style="fill:#1f77b4;stroke:#1f77b4;" x="257.369178" xlink:href="#m3235cccdc3" y="219.955098"/>
     <use style="fill:#1f77b4;stroke:#1f77b4;" x="257.369178" xlink:href="#m3235cccdc3" y="226.469623"/>
     <use style="fill:#1f77b4;stroke:#1f77b4;" x="256.833327" xlink:href="#m3235cccdc3" y="221.948768"/>
     <use style="fill:#1f77b4;stroke:#1f77b4;" x="256.297475" xlink:href="#m3235cccdc3" y="197.402133"/>
     <use style="fill:#1f77b4;stroke:#1f77b4;" x="255.761624" xlink:href="#m3235cccdc3" y="221.573241"/>
     <use style="fill:#1f77b4;stroke:#1f77b4;" x="255.225772" xlink:href="#m3235cccdc3" y="224.24848"/>
     <use style="fill:#1f77b4;stroke:#1f77b4;" x="254.154069" xlink:href="#m3235cccdc3" y="220.816248"/>
     <use style="fill:#1f77b4;stroke:#1f77b4;" x="253.618218" xlink:href="#m3235cccdc3" y="153.810653"/>
     <use style="fill:#1f77b4;stroke:#1f77b4;" x="253.082366" xlink:href="#m3235cccdc3" y="150.493471"/>
     <use style="fill:#1f77b4;stroke:#1f77b4;" x="252.546515" xlink:href="#m3235cccdc3" y="220.401422"/>
     <use style="fill:#1f77b4;stroke:#1f77b4;" x="252.010663" xlink:href="#m3235cccdc3" y="196.200676"/>
     <use style="fill:#1f77b4;stroke:#1f77b4;" x="251.474812" xlink:href="#m3235cccdc3" y="218.460899"/>
     <use style="fill:#1f77b4;stroke:#1f77b4;" x="250.93896" xlink:href="#m3235cccdc3" y="226.371732"/>
     <use style="fill:#1f77b4;stroke:#1f77b4;" x="250.403109" xlink:href="#m3235cccdc3" y="214.989587"/>
     <use style="fill:#1f77b4;stroke:#1f77b4;" x="249.867258" xlink:href="#m3235cccdc3" y="229.874489"/>
     <use style="fill:#1f77b4;stroke:#1f77b4;" x="249.331406" xlink:href="#m3235cccdc3" y="228.968019"/>
     <use style="fill:#1f77b4;stroke:#1f77b4;" x="247.723852" xlink:href="#m3235cccdc3" y="229.205015"/>
     <use style="fill:#1f77b4;stroke:#1f77b4;" x="246.116297" xlink:href="#m3235cccdc3" y="225.587099"/>
     <use style="fill:#1f77b4;stroke:#1f77b4;" x="245.580446" xlink:href="#m3235cccdc3" y="216.33803"/>
     <use style="fill:#1f77b4;stroke:#1f77b4;" x="242.901188" xlink:href="#m3235cccdc3" y="210.223908"/>
     <use style="fill:#1f77b4;stroke:#1f77b4;" x="240.757782" xlink:href="#m3235cccdc3" y="226.140483"/>
     <use style="fill:#1f77b4;stroke:#1f77b4;" x="240.221931" xlink:href="#m3235cccdc3" y="223.050527"/>
     <use style="fill:#1f77b4;stroke:#1f77b4;" x="239.150228" xlink:href="#m3235cccdc3" y="211.606888"/>
     <use style="fill:#1f77b4;stroke:#1f77b4;" x="239.150228" xlink:href="#m3235cccdc3" y="226.58897"/>
     <use style="fill:#1f77b4;stroke:#1f77b4;" x="238.614377" xlink:href="#m3235cccdc3" y="183.977413"/>
     <use style="fill:#1f77b4;stroke:#1f77b4;" x="235.935119" xlink:href="#m3235cccdc3" y="217.798732"/>
     <use style="fill:#1f77b4;stroke:#1f77b4;" x="235.399268" xlink:href="#m3235cccdc3" y="221.710567"/>
     <use style="fill:#1f77b4;stroke:#1f77b4;" x="234.863416" xlink:href="#m3235cccdc3" y="200.223155"/>
     <use style="fill:#1f77b4;stroke:#1f77b4;" x="234.327565" xlink:href="#m3235cccdc3" y="222.311268"/>
     <use style="fill:#1f77b4;stroke:#1f77b4;" x="234.327565" xlink:href="#m3235cccdc3" y="216.859395"/>
     <use style="fill:#1f77b4;stroke:#1f77b4;" x="234.327565" xlink:href="#m3235cccdc3" y="220.445565"/>
     <use style="fill:#1f77b4;stroke:#1f77b4;" x="233.791713" xlink:href="#m3235cccdc3" y="217.721777"/>
     <use style="fill:#1f77b4;stroke:#1f77b4;" x="232.184159" xlink:href="#m3235cccdc3" y="150.749597"/>
     <use style="fill:#1f77b4;stroke:#1f77b4;" x="232.184159" xlink:href="#m3235cccdc3" y="180.232624"/>
     <use style="fill:#1f77b4;stroke:#1f77b4;" x="231.648307" xlink:href="#m3235cccdc3" y="214.399422"/>
     <use style="fill:#1f77b4;stroke:#1f77b4;" x="231.112456" xlink:href="#m3235cccdc3" y="228.070224"/>
     <use style="fill:#1f77b4;stroke:#1f77b4;" x="230.576605" xlink:href="#m3235cccdc3" y="220.986688"/>
     <use style="fill:#1f77b4;stroke:#1f77b4;" x="227.361496" xlink:href="#m3235cccdc3" y="143.185008"/>
     <use style="fill:#1f77b4;stroke:#1f77b4;" x="227.361496" xlink:href="#m3235cccdc3" y="179.105387"/>
     <use style="fill:#1f77b4;stroke:#1f77b4;" x="227.361496" xlink:href="#m3235cccdc3" y="223.71959"/>
     <use style="fill:#1f77b4;stroke:#1f77b4;" x="226.825644" xlink:href="#m3235cccdc3" y="204.907007"/>
     <use style="fill:#1f77b4;stroke:#1f77b4;" x="226.825644" xlink:href="#m3235cccdc3" y="195.876325"/>
     <use style="fill:#1f77b4;stroke:#1f77b4;" x="225.21809" xlink:href="#m3235cccdc3" y="219.007359"/>
     <use style="fill:#1f77b4;stroke:#1f77b4;" x="220.931278" xlink:href="#m3235cccdc3" y="225.858249"/>
     <use style="fill:#1f77b4;stroke:#1f77b4;" x="220.395427" xlink:href="#m3235cccdc3" y="220.096338"/>
     <use style="fill:#1f77b4;stroke:#1f77b4;" x="220.395427" xlink:href="#m3235cccdc3" y="217.050278"/>
     <use style="fill:#1f77b4;stroke:#1f77b4;" x="219.323724" xlink:href="#m3235cccdc3" y="220.669343"/>
     <use style="fill:#1f77b4;stroke:#1f77b4;" x="218.252021" xlink:href="#m3235cccdc3" y="175.302663"/>
     <use style="fill:#1f77b4;stroke:#1f77b4;" x="216.644466" xlink:href="#m3235cccdc3" y="215.144811"/>
     <use style="fill:#1f77b4;stroke:#1f77b4;" x="215.036912" xlink:href="#m3235cccdc3" y="208.360832"/>
     <use style="fill:#1f77b4;stroke:#1f77b4;" x="215.036912" xlink:href="#m3235cccdc3" y="198.747155"/>
     <use style="fill:#1f77b4;stroke:#1f77b4;" x="214.50106" xlink:href="#m3235cccdc3" y="199.613916"/>
     <use style="fill:#1f77b4;stroke:#1f77b4;" x="213.965209" xlink:href="#m3235cccdc3" y="207.324616"/>
     <use style="fill:#1f77b4;stroke:#1f77b4;" x="213.429357" xlink:href="#m3235cccdc3" y="207.835554"/>
     <use style="fill:#1f77b4;stroke:#1f77b4;" x="211.821803" xlink:href="#m3235cccdc3" y="218.610978"/>
     <use style="fill:#1f77b4;stroke:#1f77b4;" x="211.821803" xlink:href="#m3235cccdc3" y="210.506744"/>
     <use style="fill:#1f77b4;stroke:#1f77b4;" x="211.821803" xlink:href="#m3235cccdc3" y="216.729348"/>
     <use style="fill:#1f77b4;stroke:#1f77b4;" x="211.285952" xlink:href="#m3235cccdc3" y="193.111569"/>
     <use style="fill:#1f77b4;stroke:#1f77b4;" x="209.678397" xlink:href="#m3235cccdc3" y="227.088687"/>
     <use style="fill:#1f77b4;stroke:#1f77b4;" x="209.678397" xlink:href="#m3235cccdc3" y="198.275434"/>
     <use style="fill:#1f77b4;stroke:#1f77b4;" x="209.142546" xlink:href="#m3235cccdc3" y="149.882125"/>
     <use style="fill:#1f77b4;stroke:#1f77b4;" x="208.606694" xlink:href="#m3235cccdc3" y="221.093747"/>
     <use style="fill:#1f77b4;stroke:#1f77b4;" x="207.534991" xlink:href="#m3235cccdc3" y="207.332388"/>
     <use style="fill:#1f77b4;stroke:#1f77b4;" x="205.927437" xlink:href="#m3235cccdc3" y="227.478636"/>
     <use style="fill:#1f77b4;stroke:#1f77b4;" x="205.927437" xlink:href="#m3235cccdc3" y="195.539385"/>
     <use style="fill:#1f77b4;stroke:#1f77b4;" x="203.784031" xlink:href="#m3235cccdc3" y="209.610755"/>
     <use style="fill:#1f77b4;stroke:#1f77b4;" x="203.784031" xlink:href="#m3235cccdc3" y="216.800802"/>
     <use style="fill:#1f77b4;stroke:#1f77b4;" x="203.784031" xlink:href="#m3235cccdc3" y="224.815301"/>
     <use style="fill:#1f77b4;stroke:#1f77b4;" x="202.712328" xlink:href="#m3235cccdc3" y="224.813933"/>
     <use style="fill:#1f77b4;stroke:#1f77b4;" x="202.712328" xlink:href="#m3235cccdc3" y="220.334538"/>
     <use style="fill:#1f77b4;stroke:#1f77b4;" x="202.176476" xlink:href="#m3235cccdc3" y="222.082837"/>
     <use style="fill:#1f77b4;stroke:#1f77b4;" x="200.568922" xlink:href="#m3235cccdc3" y="213.547138"/>
     <use style="fill:#1f77b4;stroke:#1f77b4;" x="200.568922" xlink:href="#m3235cccdc3" y="221.471683"/>
     <use style="fill:#1f77b4;stroke:#1f77b4;" x="197.889665" xlink:href="#m3235cccdc3" y="221.486762"/>
     <use style="fill:#1f77b4;stroke:#1f77b4;" x="196.817962" xlink:href="#m3235cccdc3" y="223.144504"/>
     <use style="fill:#1f77b4;stroke:#1f77b4;" x="196.817962" xlink:href="#m3235cccdc3" y="188.115243"/>
     <use style="fill:#1f77b4;stroke:#1f77b4;" x="195.746259" xlink:href="#m3235cccdc3" y="224.243116"/>
     <use style="fill:#1f77b4;stroke:#1f77b4;" x="195.210407" xlink:href="#m3235cccdc3" y="219.377604"/>
     <use style="fill:#1f77b4;stroke:#1f77b4;" x="195.210407" xlink:href="#m3235cccdc3" y="190.555292"/>
     <use style="fill:#1f77b4;stroke:#1f77b4;" x="194.674556" xlink:href="#m3235cccdc3" y="184.173988"/>
     <use style="fill:#1f77b4;stroke:#1f77b4;" x="194.674556" xlink:href="#m3235cccdc3" y="178.836234"/>
     <use style="fill:#1f77b4;stroke:#1f77b4;" x="194.674556" xlink:href="#m3235cccdc3" y="211.748539"/>
     <use style="fill:#1f77b4;stroke:#1f77b4;" x="194.138704" xlink:href="#m3235cccdc3" y="197.08996"/>
     <use style="fill:#1f77b4;stroke:#1f77b4;" x="192.53115" xlink:href="#m3235cccdc3" y="221.713331"/>
     <use style="fill:#1f77b4;stroke:#1f77b4;" x="191.459447" xlink:href="#m3235cccdc3" y="176.716321"/>
     <use style="fill:#1f77b4;stroke:#1f77b4;" x="191.459447" xlink:href="#m3235cccdc3" y="178.099685"/>
     <use style="fill:#1f77b4;stroke:#1f77b4;" x="189.851893" xlink:href="#m3235cccdc3" y="228.730694"/>
     <use style="fill:#1f77b4;stroke:#1f77b4;" x="189.316041" xlink:href="#m3235cccdc3" y="206.625915"/>
     <use style="fill:#1f77b4;stroke:#1f77b4;" x="188.78019" xlink:href="#m3235cccdc3" y="212.260544"/>
     <use style="fill:#1f77b4;stroke:#1f77b4;" x="188.78019" xlink:href="#m3235cccdc3" y="156.269504"/>
     <use style="fill:#1f77b4;stroke:#1f77b4;" x="187.708487" xlink:href="#m3235cccdc3" y="221.146182"/>
     <use style="fill:#1f77b4;stroke:#1f77b4;" x="186.100932" xlink:href="#m3235cccdc3" y="225.842103"/>
     <use style="fill:#1f77b4;stroke:#1f77b4;" x="186.100932" xlink:href="#m3235cccdc3" y="222.71449"/>
     <use style="fill:#1f77b4;stroke:#1f77b4;" x="183.957526" xlink:href="#m3235cccdc3" y="211.23314"/>
     <use style="fill:#1f77b4;stroke:#1f77b4;" x="182.349972" xlink:href="#m3235cccdc3" y="158.090271"/>
     <use style="fill:#1f77b4;stroke:#1f77b4;" x="181.814121" xlink:href="#m3235cccdc3" y="216.402041"/>
     <use style="fill:#1f77b4;stroke:#1f77b4;" x="181.814121" xlink:href="#m3235cccdc3" y="218.033895"/>
     <use style="fill:#1f77b4;stroke:#1f77b4;" x="181.278269" xlink:href="#m3235cccdc3" y="187.202068"/>
     <use style="fill:#1f77b4;stroke:#1f77b4;" x="180.742418" xlink:href="#m3235cccdc3" y="221.906294"/>
     <use style="fill:#1f77b4;stroke:#1f77b4;" x="180.206566" xlink:href="#m3235cccdc3" y="213.787145"/>
     <use style="fill:#1f77b4;stroke:#1f77b4;" x="180.206566" xlink:href="#m3235cccdc3" y="226.910694"/>
     <use style="fill:#1f77b4;stroke:#1f77b4;" x="180.206566" xlink:href="#m3235cccdc3" y="172.491164"/>
     <use style="fill:#1f77b4;stroke:#1f77b4;" x="177.527309" xlink:href="#m3235cccdc3" y="220.221103"/>
     <use style="fill:#1f77b4;stroke:#1f77b4;" x="176.991457" xlink:href="#m3235cccdc3" y="226.86885"/>
     <use style="fill:#1f77b4;stroke:#1f77b4;" x="175.383903" xlink:href="#m3235cccdc3" y="229.062735"/>
     <use style="fill:#1f77b4;stroke:#1f77b4;" x="174.848051" xlink:href="#m3235cccdc3" y="222.700232"/>
     <use style="fill:#1f77b4;stroke:#1f77b4;" x="173.240497" xlink:href="#m3235cccdc3" y="223.981463"/>
     <use style="fill:#1f77b4;stroke:#1f77b4;" x="173.240497" xlink:href="#m3235cccdc3" y="181.00705"/>
     <use style="fill:#1f77b4;stroke:#1f77b4;" x="172.704645" xlink:href="#m3235cccdc3" y="140.398823"/>
     <use style="fill:#1f77b4;stroke:#1f77b4;" x="172.168794" xlink:href="#m3235cccdc3" y="220.028441"/>
     <use style="fill:#1f77b4;stroke:#1f77b4;" x="171.097091" xlink:href="#m3235cccdc3" y="222.652614"/>
     <use style="fill:#1f77b4;stroke:#1f77b4;" x="171.097091" xlink:href="#m3235cccdc3" y="209.679993"/>
     <use style="fill:#1f77b4;stroke:#1f77b4;" x="170.56124" xlink:href="#m3235cccdc3" y="208.018665"/>
     <use style="fill:#1f77b4;stroke:#1f77b4;" x="168.953685" xlink:href="#m3235cccdc3" y="211.310889"/>
     <use style="fill:#1f77b4;stroke:#1f77b4;" x="168.953685" xlink:href="#m3235cccdc3" y="222.145945"/>
     <use style="fill:#1f77b4;stroke:#1f77b4;" x="168.417834" xlink:href="#m3235cccdc3" y="215.687987"/>
     <use style="fill:#1f77b4;stroke:#1f77b4;" x="168.417834" xlink:href="#m3235cccdc3" y="224.36405"/>
     <use style="fill:#1f77b4;stroke:#1f77b4;" x="166.810279" xlink:href="#m3235cccdc3" y="206.956944"/>
     <use style="fill:#1f77b4;stroke:#1f77b4;" x="166.810279" xlink:href="#m3235cccdc3" y="223.675146"/>
     <use style="fill:#1f77b4;stroke:#1f77b4;" x="166.810279" xlink:href="#m3235cccdc3" y="219.448922"/>
     <use style="fill:#1f77b4;stroke:#1f77b4;" x="166.274428" xlink:href="#m3235cccdc3" y="114.053479"/>
     <use style="fill:#1f77b4;stroke:#1f77b4;" x="165.738576" xlink:href="#m3235cccdc3" y="206.941536"/>
     <use style="fill:#1f77b4;stroke:#1f77b4;" x="165.738576" xlink:href="#m3235cccdc3" y="179.269067"/>
     <use style="fill:#1f77b4;stroke:#1f77b4;" x="165.202725" xlink:href="#m3235cccdc3" y="223.630018"/>
     <use style="fill:#1f77b4;stroke:#1f77b4;" x="165.202725" xlink:href="#m3235cccdc3" y="219.297857"/>
     <use style="fill:#1f77b4;stroke:#1f77b4;" x="164.131022" xlink:href="#m3235cccdc3" y="221.937821"/>
     <use style="fill:#1f77b4;stroke:#1f77b4;" x="163.059319" xlink:href="#m3235cccdc3" y="194.172524"/>
     <use style="fill:#1f77b4;stroke:#1f77b4;" x="163.059319" xlink:href="#m3235cccdc3" y="180.299947"/>
     <use style="fill:#1f77b4;stroke:#1f77b4;" x="162.523468" xlink:href="#m3235cccdc3" y="211.734937"/>
     <use style="fill:#1f77b4;stroke:#1f77b4;" x="161.987616" xlink:href="#m3235cccdc3" y="218.930567"/>
     <use style="fill:#1f77b4;stroke:#1f77b4;" x="160.380062" xlink:href="#m3235cccdc3" y="135.936505"/>
     <use style="fill:#1f77b4;stroke:#1f77b4;" x="158.236656" xlink:href="#m3235cccdc3" y="208.361982"/>
     <use style="fill:#1f77b4;stroke:#1f77b4;" x="157.700804" xlink:href="#m3235cccdc3" y="193.144546"/>
     <use style="fill:#1f77b4;stroke:#1f77b4;" x="157.164953" xlink:href="#m3235cccdc3" y="213.018823"/>
     <use style="fill:#1f77b4;stroke:#1f77b4;" x="157.164953" xlink:href="#m3235cccdc3" y="217.365762"/>
     <use style="fill:#1f77b4;stroke:#1f77b4;" x="157.164953" xlink:href="#m3235cccdc3" y="223.877797"/>
     <use style="fill:#1f77b4;stroke:#1f77b4;" x="156.629101" xlink:href="#m3235cccdc3" y="228.199395"/>
     <use style="fill:#1f77b4;stroke:#1f77b4;" x="155.021547" xlink:href="#m3235cccdc3" y="222.477877"/>
     <use style="fill:#1f77b4;stroke:#1f77b4;" x="152.878141" xlink:href="#m3235cccdc3" y="224.818804"/>
     <use style="fill:#1f77b4;stroke:#1f77b4;" x="152.34229" xlink:href="#m3235cccdc3" y="226.564832"/>
     <use style="fill:#1f77b4;stroke:#1f77b4;" x="152.34229" xlink:href="#m3235cccdc3" y="209.795289"/>
     <use style="fill:#1f77b4;stroke:#1f77b4;" x="152.34229" xlink:href="#m3235cccdc3" y="225.296354"/>
     <use style="fill:#1f77b4;stroke:#1f77b4;" x="151.270587" xlink:href="#m3235cccdc3" y="217.916464"/>
     <use style="fill:#1f77b4;stroke:#1f77b4;" x="151.270587" xlink:href="#m3235cccdc3" y="211.441237"/>
     <use style="fill:#1f77b4;stroke:#1f77b4;" x="150.198884" xlink:href="#m3235cccdc3" y="227.832024"/>
     <use style="fill:#1f77b4;stroke:#1f77b4;" x="150.198884" xlink:href="#m3235cccdc3" y="224.1776"/>
     <use style="fill:#1f77b4;stroke:#1f77b4;" x="149.663032" xlink:href="#m3235cccdc3" y="199.529243"/>
     <use style="fill:#1f77b4;stroke:#1f77b4;" x="149.663032" xlink:href="#m3235cccdc3" y="214.853875"/>
     <use style="fill:#1f77b4;stroke:#1f77b4;" x="149.127181" xlink:href="#m3235cccdc3" y="212.294588"/>
     <use style="fill:#1f77b4;stroke:#1f77b4;" x="148.591329" xlink:href="#m3235cccdc3" y="222.455354"/>
     <use style="fill:#1f77b4;stroke:#1f77b4;" x="148.055478" xlink:href="#m3235cccdc3" y="167.855861"/>
     <use style="fill:#1f77b4;stroke:#1f77b4;" x="148.055478" xlink:href="#m3235cccdc3" y="224.824962"/>
     <use style="fill:#1f77b4;stroke:#1f77b4;" x="146.983775" xlink:href="#m3235cccdc3" y="227.89702"/>
     <use style="fill:#1f77b4;stroke:#1f77b4;" x="146.983775" xlink:href="#m3235cccdc3" y="204.72614"/>
     <use style="fill:#1f77b4;stroke:#1f77b4;" x="145.37622" xlink:href="#m3235cccdc3" y="180.735079"/>
     <use style="fill:#1f77b4;stroke:#1f77b4;" x="145.37622" xlink:href="#m3235cccdc3" y="198.268374"/>
     <use style="fill:#1f77b4;stroke:#1f77b4;" x="144.840369" xlink:href="#m3235cccdc3" y="190.659916"/>
     <use style="fill:#1f77b4;stroke:#1f77b4;" x="144.304517" xlink:href="#m3235cccdc3" y="216.583483"/>
     <use style="fill:#1f77b4;stroke:#1f77b4;" x="142.696963" xlink:href="#m3235cccdc3" y="223.738418"/>
     <use style="fill:#1f77b4;stroke:#1f77b4;" x="142.161112" xlink:href="#m3235cccdc3" y="217.464419"/>
     <use style="fill:#1f77b4;stroke:#1f77b4;" x="141.62526" xlink:href="#m3235cccdc3" y="215.824684"/>
     <use style="fill:#1f77b4;stroke:#1f77b4;" x="141.62526" xlink:href="#m3235cccdc3" y="191.061249"/>
     <use style="fill:#1f77b4;stroke:#1f77b4;" x="141.089409" xlink:href="#m3235cccdc3" y="194.353008"/>
     <use style="fill:#1f77b4;stroke:#1f77b4;" x="140.553557" xlink:href="#m3235cccdc3" y="170.127604"/>
     <use style="fill:#1f77b4;stroke:#1f77b4;" x="138.946003" xlink:href="#m3235cccdc3" y="222.89938"/>
     <use style="fill:#1f77b4;stroke:#1f77b4;" x="138.410151" xlink:href="#m3235cccdc3" y="226.276934"/>
     <use style="fill:#1f77b4;stroke:#1f77b4;" x="137.8743" xlink:href="#m3235cccdc3" y="216.206232"/>
     <use style="fill:#1f77b4;stroke:#1f77b4;" x="137.338448" xlink:href="#m3235cccdc3" y="208.71452"/>
     <use style="fill:#1f77b4;stroke:#1f77b4;" x="135.730894" xlink:href="#m3235cccdc3" y="220.391516"/>
     <use style="fill:#1f77b4;stroke:#1f77b4;" x="135.730894" xlink:href="#m3235cccdc3" y="211.264256"/>
     <use style="fill:#1f77b4;stroke:#1f77b4;" x="134.659191" xlink:href="#m3235cccdc3" y="222.387977"/>
     <use style="fill:#1f77b4;stroke:#1f77b4;" x="134.659191" xlink:href="#m3235cccdc3" y="221.739494"/>
     <use style="fill:#1f77b4;stroke:#1f77b4;" x="134.659191" xlink:href="#m3235cccdc3" y="212.818169"/>
     <use style="fill:#1f77b4;stroke:#1f77b4;" x="134.123339" xlink:href="#m3235cccdc3" y="224.058664"/>
     <use style="fill:#1f77b4;stroke:#1f77b4;" x="132.515785" xlink:href="#m3235cccdc3" y="224.995758"/>
     <use style="fill:#1f77b4;stroke:#1f77b4;" x="132.515785" xlink:href="#m3235cccdc3" y="224.462598"/>
     <use style="fill:#1f77b4;stroke:#1f77b4;" x="132.515785" xlink:href="#m3235cccdc3" y="169.13575"/>
     <use style="fill:#1f77b4;stroke:#1f77b4;" x="132.515785" xlink:href="#m3235cccdc3" y="215.325651"/>
     <use style="fill:#1f77b4;stroke:#1f77b4;" x="131.444082" xlink:href="#m3235cccdc3" y="213.006042"/>
     <use style="fill:#1f77b4;stroke:#1f77b4;" x="130.372379" xlink:href="#m3235cccdc3" y="218.310901"/>
     <use style="fill:#1f77b4;stroke:#1f77b4;" x="130.372379" xlink:href="#m3235cccdc3" y="226.221926"/>
     <use style="fill:#1f77b4;stroke:#1f77b4;" x="128.228973" xlink:href="#m3235cccdc3" y="204.426447"/>
     <use style="fill:#1f77b4;stroke:#1f77b4;" x="126.621419" xlink:href="#m3235cccdc3" y="228.861507"/>
     <use style="fill:#1f77b4;stroke:#1f77b4;" x="126.621419" xlink:href="#m3235cccdc3" y="219.987664"/>
     <use style="fill:#1f77b4;stroke:#1f77b4;" x="125.549716" xlink:href="#m3235cccdc3" y="222.855812"/>
     <use style="fill:#1f77b4;stroke:#1f77b4;" x="125.013864" xlink:href="#m3235cccdc3" y="162.148737"/>
     <use style="fill:#1f77b4;stroke:#1f77b4;" x="123.942161" xlink:href="#m3235cccdc3" y="212.746824"/>
     <use style="fill:#1f77b4;stroke:#1f77b4;" x="123.942161" xlink:href="#m3235cccdc3" y="226.533278"/>
     <use style="fill:#1f77b4;stroke:#1f77b4;" x="123.40631" xlink:href="#m3235cccdc3" y="114.831024"/>
     <use style="fill:#1f77b4;stroke:#1f77b4;" x="122.870459" xlink:href="#m3235cccdc3" y="215.941294"/>
     <use style="fill:#1f77b4;stroke:#1f77b4;" x="121.798756" xlink:href="#m3235cccdc3" y="224.297357"/>
     <use style="fill:#1f77b4;stroke:#1f77b4;" x="120.191201" xlink:href="#m3235cccdc3" y="210.965466"/>
     <use style="fill:#1f77b4;stroke:#1f77b4;" x="118.583647" xlink:href="#m3235cccdc3" y="217.246607"/>
     <use style="fill:#1f77b4;stroke:#1f77b4;" x="118.583647" xlink:href="#m3235cccdc3" y="158.658679"/>
     <use style="fill:#1f77b4;stroke:#1f77b4;" x="117.511944" xlink:href="#m3235cccdc3" y="209.00636"/>
     <use style="fill:#1f77b4;stroke:#1f77b4;" x="117.511944" xlink:href="#m3235cccdc3" y="221.14755"/>
     <use style="fill:#1f77b4;stroke:#1f77b4;" x="116.976092" xlink:href="#m3235cccdc3" y="220.877577"/>
     <use style="fill:#1f77b4;stroke:#1f77b4;" x="116.440241" xlink:href="#m3235cccdc3" y="224.679781"/>
     <use style="fill:#1f77b4;stroke:#1f77b4;" x="116.440241" xlink:href="#m3235cccdc3" y="226.741238"/>
     <use style="fill:#1f77b4;stroke:#1f77b4;" x="115.904389" xlink:href="#m3235cccdc3" y="218.005871"/>
     <use style="fill:#1f77b4;stroke:#1f77b4;" x="115.368538" xlink:href="#m3235cccdc3" y="202.114528"/>
     <use style="fill:#1f77b4;stroke:#1f77b4;" x="114.832686" xlink:href="#m3235cccdc3" y="221.400693"/>
     <use style="fill:#1f77b4;stroke:#1f77b4;" x="113.225132" xlink:href="#m3235cccdc3" y="197.590279"/>
     <use style="fill:#1f77b4;stroke:#1f77b4;" x="113.225132" xlink:href="#m3235cccdc3" y="225.610251"/>
     <use style="fill:#1f77b4;stroke:#1f77b4;" x="112.689281" xlink:href="#m3235cccdc3" y="218.420095"/>
     <use style="fill:#1f77b4;stroke:#1f77b4;" x="112.689281" xlink:href="#m3235cccdc3" y="226.760204"/>
     <use style="fill:#1f77b4;stroke:#1f77b4;" x="112.153429" xlink:href="#m3235cccdc3" y="210.191697"/>
     <use style="fill:#1f77b4;stroke:#1f77b4;" x="111.081726" xlink:href="#m3235cccdc3" y="196.666733"/>
     <use style="fill:#1f77b4;stroke:#1f77b4;" x="110.545875" xlink:href="#m3235cccdc3" y="215.293166"/>
     <use style="fill:#1f77b4;stroke:#1f77b4;" x="108.93832" xlink:href="#m3235cccdc3" y="226.016484"/>
     <use style="fill:#1f77b4;stroke:#1f77b4;" x="108.402469" xlink:href="#m3235cccdc3" y="166.686478"/>
     <use style="fill:#1f77b4;stroke:#1f77b4;" x="107.866617" xlink:href="#m3235cccdc3" y="229.442504"/>
     <use style="fill:#1f77b4;stroke:#1f77b4;" x="106.794914" xlink:href="#m3235cccdc3" y="200.371894"/>
     <use style="fill:#1f77b4;stroke:#1f77b4;" x="106.259063" xlink:href="#m3235cccdc3" y="222.332724"/>
     <use style="fill:#1f77b4;stroke:#1f77b4;" x="106.259063" xlink:href="#m3235cccdc3" y="190.478255"/>
     <use style="fill:#1f77b4;stroke:#1f77b4;" x="106.259063" xlink:href="#m3235cccdc3" y="223.796655"/>
     <use style="fill:#1f77b4;stroke:#1f77b4;" x="105.723211" xlink:href="#m3235cccdc3" y="221.98106"/>
     <use style="fill:#1f77b4;stroke:#1f77b4;" x="105.723211" xlink:href="#m3235cccdc3" y="86.964854"/>
     <use style="fill:#1f77b4;stroke:#1f77b4;" x="105.18736" xlink:href="#m3235cccdc3" y="194.944514"/>
     <use style="fill:#1f77b4;stroke:#1f77b4;" x="103.043954" xlink:href="#m3235cccdc3" y="219.016855"/>
     <use style="fill:#1f77b4;stroke:#1f77b4;" x="101.972251" xlink:href="#m3235cccdc3" y="222.602314"/>
     <use style="fill:#1f77b4;stroke:#1f77b4;" x="100.900548" xlink:href="#m3235cccdc3" y="81.282196"/>
     <use style="fill:#1f77b4;stroke:#1f77b4;" x="100.364697" xlink:href="#m3235cccdc3" y="222.421282"/>
     <use style="fill:#1f77b4;stroke:#1f77b4;" x="100.364697" xlink:href="#m3235cccdc3" y="223.307802"/>
     <use style="fill:#1f77b4;stroke:#1f77b4;" x="99.292994" xlink:href="#m3235cccdc3" y="223.378408"/>
     <use style="fill:#1f77b4;stroke:#1f77b4;" x="99.292994" xlink:href="#m3235cccdc3" y="162.403002"/>
     <use style="fill:#1f77b4;stroke:#1f77b4;" x="98.221291" xlink:href="#m3235cccdc3" y="183.026472"/>
     <use style="fill:#1f77b4;stroke:#1f77b4;" x="98.221291" xlink:href="#m3235cccdc3" y="223.056274"/>
     <use style="fill:#1f77b4;stroke:#1f77b4;" x="97.685439" xlink:href="#m3235cccdc3" y="224.778274"/>
     <use style="fill:#1f77b4;stroke:#1f77b4;" x="97.685439" xlink:href="#m3235cccdc3" y="220.653635"/>
     <use style="fill:#1f77b4;stroke:#1f77b4;" x="97.149588" xlink:href="#m3235cccdc3" y="219.968316"/>
     <use style="fill:#1f77b4;stroke:#1f77b4;" x="95.006182" xlink:href="#m3235cccdc3" y="200.321402"/>
     <use style="fill:#1f77b4;stroke:#1f77b4;" x="95.006182" xlink:href="#m3235cccdc3" y="152.982754"/>
     <use style="fill:#1f77b4;stroke:#1f77b4;" x="94.470331" xlink:href="#m3235cccdc3" y="229.462564"/>
     <use style="fill:#1f77b4;stroke:#1f77b4;" x="94.470331" xlink:href="#m3235cccdc3" y="184.092189"/>
     <use style="fill:#1f77b4;stroke:#1f77b4;" x="93.398628" xlink:href="#m3235cccdc3" y="226.648"/>
     <use style="fill:#1f77b4;stroke:#1f77b4;" x="92.326925" xlink:href="#m3235cccdc3" y="221.723238"/>
     <use style="fill:#1f77b4;stroke:#1f77b4;" x="91.255222" xlink:href="#m3235cccdc3" y="225.948231"/>
     <use style="fill:#1f77b4;stroke:#1f77b4;" x="90.71937" xlink:href="#m3235cccdc3" y="223.93784"/>
     <use style="fill:#1f77b4;stroke:#1f77b4;" x="89.647667" xlink:href="#m3235cccdc3" y="217.262945"/>
     <use style="fill:#1f77b4;stroke:#1f77b4;" x="89.647667" xlink:href="#m3235cccdc3" y="155.925531"/>
     <use style="fill:#1f77b4;stroke:#1f77b4;" x="87.504261" xlink:href="#m3235cccdc3" y="199.418435"/>
     <use style="fill:#1f77b4;stroke:#1f77b4;" x="87.504261" xlink:href="#m3235cccdc3" y="212.570117"/>
     <use style="fill:#1f77b4;stroke:#1f77b4;" x="86.96841" xlink:href="#m3235cccdc3" y="154.095241"/>
     <use style="fill:#1f77b4;stroke:#1f77b4;" x="86.96841" xlink:href="#m3235cccdc3" y="144.195225"/>
     <use style="fill:#1f77b4;stroke:#1f77b4;" x="86.96841" xlink:href="#m3235cccdc3" y="205.915774"/>
     <use style="fill:#1f77b4;stroke:#1f77b4;" x="86.96841" xlink:href="#m3235cccdc3" y="223.585985"/>
     <use style="fill:#1f77b4;stroke:#1f77b4;" x="85.896707" xlink:href="#m3235cccdc3" y="227.162933"/>
     <use style="fill:#1f77b4;stroke:#1f77b4;" x="85.896707" xlink:href="#m3235cccdc3" y="183.88858"/>
     <use style="fill:#1f77b4;stroke:#1f77b4;" x="85.360855" xlink:href="#m3235cccdc3" y="226.299019"/>
     <use style="fill:#1f77b4;stroke:#1f77b4;" x="84.289153" xlink:href="#m3235cccdc3" y="221.845978"/>
     <use style="fill:#1f77b4;stroke:#1f77b4;" x="84.289153" xlink:href="#m3235cccdc3" y="222.74952"/>
     <use style="fill:#1f77b4;stroke:#1f77b4;" x="83.753301" xlink:href="#m3235cccdc3" y="208.853763"/>
     <use style="fill:#1f77b4;stroke:#1f77b4;" x="83.21745" xlink:href="#m3235cccdc3" y="155.80394"/>
     <use style="fill:#1f77b4;stroke:#1f77b4;" x="83.21745" xlink:href="#m3235cccdc3" y="224.699868"/>
     <use style="fill:#1f77b4;stroke:#1f77b4;" x="82.681598" xlink:href="#m3235cccdc3" y="226.775173"/>
     <use style="fill:#1f77b4;stroke:#1f77b4;" x="82.145747" xlink:href="#m3235cccdc3" y="221.225792"/>
     <use style="fill:#1f77b4;stroke:#1f77b4;" x="79.466489" xlink:href="#m3235cccdc3" y="161.209126"/>
     <use style="fill:#1f77b4;stroke:#1f77b4;" x="78.930638" xlink:href="#m3235cccdc3" y="213.2371"/>
     <use style="fill:#1f77b4;stroke:#1f77b4;" x="78.394786" xlink:href="#m3235cccdc3" y="163.621262"/>
     <use style="fill:#1f77b4;stroke:#1f77b4;" x="77.858935" xlink:href="#m3235cccdc3" y="221.584899"/>
     <use style="fill:#1f77b4;stroke:#1f77b4;" x="77.858935" xlink:href="#m3235cccdc3" y="224.565141"/>
     <use style="fill:#1f77b4;stroke:#1f77b4;" x="76.787232" xlink:href="#m3235cccdc3" y="223.457991"/>
     <use style="fill:#1f77b4;stroke:#1f77b4;" x="76.25138" xlink:href="#m3235cccdc3" y="207.02547"/>
     <use style="fill:#1f77b4;stroke:#1f77b4;" x="74.107975" xlink:href="#m3235cccdc3" y="194.75935"/>
     <use style="fill:#1f77b4;stroke:#1f77b4;" x="73.572123" xlink:href="#m3235cccdc3" y="113.405899"/>
     <use style="fill:#1f77b4;stroke:#1f77b4;" x="71.964569" xlink:href="#m3235cccdc3" y="212.025436"/>
     <use style="fill:#1f77b4;stroke:#1f77b4;" x="69.285311" xlink:href="#m3235cccdc3" y="220.602404"/>
     <use style="fill:#1f77b4;stroke:#1f77b4;" x="69.285311" xlink:href="#m3235cccdc3" y="225.914871"/>
     <use style="fill:#1f77b4;stroke:#1f77b4;" x="68.74946" xlink:href="#m3235cccdc3" y="227.625131"/>
     <use style="fill:#1f77b4;stroke:#1f77b4;" x="68.74946" xlink:href="#m3235cccdc3" y="184.980104"/>
     <use style="fill:#1f77b4;stroke:#1f77b4;" x="68.74946" xlink:href="#m3235cccdc3" y="220.796352"/>
     <use style="fill:#1f77b4;stroke:#1f77b4;" x="68.213608" xlink:href="#m3235cccdc3" y="204.475214"/>
     <use style="fill:#1f77b4;stroke:#1f77b4;" x="67.141905" xlink:href="#m3235cccdc3" y="224.272892"/>
     <use style="fill:#1f77b4;stroke:#1f77b4;" x="67.141905" xlink:href="#m3235cccdc3" y="222.64164"/>
     <use style="fill:#1f77b4;stroke:#1f77b4;" x="67.141905" xlink:href="#m3235cccdc3" y="217.257198"/>
     <use style="fill:#1f77b4;stroke:#1f77b4;" x="67.141905" xlink:href="#m3235cccdc3" y="225.001149"/>
     <use style="fill:#1f77b4;stroke:#1f77b4;" x="66.070202" xlink:href="#m3235cccdc3" y="226.188676"/>
     <use style="fill:#1f77b4;stroke:#1f77b4;" x="64.9985" xlink:href="#m3235cccdc3" y="225.065789"/>
     <use style="fill:#1f77b4;stroke:#1f77b4;" x="64.9985" xlink:href="#m3235cccdc3" y="209.43569"/>
     <use style="fill:#1f77b4;stroke:#1f77b4;" x="63.926797" xlink:href="#m3235cccdc3" y="219.130181"/>
     <use style="fill:#1f77b4;stroke:#1f77b4;" x="63.390945" xlink:href="#m3235cccdc3" y="220.853139"/>
     <use style="fill:#1f77b4;stroke:#1f77b4;" x="62.855094" xlink:href="#m3235cccdc3" y="183.270666"/>
     <use style="fill:#1f77b4;stroke:#1f77b4;" x="62.319242" xlink:href="#m3235cccdc3" y="206.165414"/>
     <use style="fill:#1f77b4;stroke:#1f77b4;" x="62.319242" xlink:href="#m3235cccdc3" y="222.608225"/>
     <use style="fill:#1f77b4;stroke:#1f77b4;" x="60.711688" xlink:href="#m3235cccdc3" y="217.387026"/>
     <use style="fill:#1f77b4;stroke:#1f77b4;" x="60.711688" xlink:href="#m3235cccdc3" y="216.186911"/>
     <use style="fill:#1f77b4;stroke:#1f77b4;" x="60.711688" xlink:href="#m3235cccdc3" y="168.457601"/>
     <use style="fill:#1f77b4;stroke:#1f77b4;" x="60.175836" xlink:href="#m3235cccdc3" y="119.150269"/>
     <use style="fill:#1f77b4;stroke:#1f77b4;" x="59.104133" xlink:href="#m3235cccdc3" y="188.036426"/>
     <use style="fill:#1f77b4;stroke:#1f77b4;" x="59.104133" xlink:href="#m3235cccdc3" y="194.93447"/>
     <use style="fill:#1f77b4;stroke:#1f77b4;" x="59.104133" xlink:href="#m3235cccdc3" y="154.712115"/>
     <use style="fill:#1f77b4;stroke:#1f77b4;" x="58.568282" xlink:href="#m3235cccdc3" y="172.082961"/>
     <use style="fill:#1f77b4;stroke:#1f77b4;" x="58.03243" xlink:href="#m3235cccdc3" y="204.972058"/>
     <use style="fill:#1f77b4;stroke:#1f77b4;" x="58.03243" xlink:href="#m3235cccdc3" y="217.2419"/>
     <use style="fill:#1f77b4;stroke:#1f77b4;" x="58.03243" xlink:href="#m3235cccdc3" y="208.289241"/>
     <use style="fill:#1f77b4;stroke:#1f77b4;" x="57.496579" xlink:href="#m3235cccdc3" y="220.444169"/>
     <use style="fill:#1f77b4;stroke:#1f77b4;" x="56.960727" xlink:href="#m3235cccdc3" y="223.253807"/>
     <use style="fill:#1f77b4;stroke:#1f77b4;" x="56.424876" xlink:href="#m3235cccdc3" y="218.139777"/>
     <use style="fill:#1f77b4;stroke:#1f77b4;" x="55.353173" xlink:href="#m3235cccdc3" y="229.144863"/>
     <use style="fill:#1f77b4;stroke:#1f77b4;" x="54.817322" xlink:href="#m3235cccdc3" y="213.201633"/>
     <use style="fill:#1f77b4;stroke:#1f77b4;" x="53.745619" xlink:href="#m3235cccdc3" y="229.595813"/>
     <use style="fill:#1f77b4;stroke:#1f77b4;" x="53.745619" xlink:href="#m3235cccdc3" y="212.848519"/>
     <use style="fill:#1f77b4;stroke:#1f77b4;" x="51.602213" xlink:href="#m3235cccdc3" y="194.265845"/>
     <use style="fill:#1f77b4;stroke:#1f77b4;" x="50.53051" xlink:href="#m3235cccdc3" y="190.929205"/>
     <use style="fill:#1f77b4;stroke:#1f77b4;" x="49.994658" xlink:href="#m3235cccdc3" y="203.100116"/>
     <use style="fill:#1f77b4;stroke:#1f77b4;" x="49.458807" xlink:href="#m3235cccdc3" y="164.635037"/>
     <use style="fill:#1f77b4;stroke:#1f77b4;" x="49.458807" xlink:href="#m3235cccdc3" y="226.896353"/>
    </g>
   </g>
   <g id="matplotlib.axis_1">
    <g id="xtick_1">
     <g id="line2d_1">
      <defs>
       <path d="M 0 0 
L 0 3.5 
" id="md5833444e4" style="stroke:#000000;stroke-width:0.8;"/>
      </defs>
      <g>
       <use style="stroke:#000000;stroke-width:0.8;" x="48.922955" xlink:href="#md5833444e4" y="239.758125"/>
      </g>
     </g>
     <g id="text_1">
      <!-- 0.4 -->
      <g transform="translate(40.971393 254.356562)scale(0.1 -0.1)">
       <defs>
        <path d="M 31.78125 66.40625 
Q 24.171875 66.40625 20.328125 58.90625 
Q 16.5 51.421875 16.5 36.375 
Q 16.5 21.390625 20.328125 13.890625 
Q 24.171875 6.390625 31.78125 6.390625 
Q 39.453125 6.390625 43.28125 13.890625 
Q 47.125 21.390625 47.125 36.375 
Q 47.125 51.421875 43.28125 58.90625 
Q 39.453125 66.40625 31.78125 66.40625 
z
M 31.78125 74.21875 
Q 44.046875 74.21875 50.515625 64.515625 
Q 56.984375 54.828125 56.984375 36.375 
Q 56.984375 17.96875 50.515625 8.265625 
Q 44.046875 -1.421875 31.78125 -1.421875 
Q 19.53125 -1.421875 13.0625 8.265625 
Q 6.59375 17.96875 6.59375 36.375 
Q 6.59375 54.828125 13.0625 64.515625 
Q 19.53125 74.21875 31.78125 74.21875 
z
" id="DejaVuSans-48"/>
        <path d="M 10.6875 12.40625 
L 21 12.40625 
L 21 0 
L 10.6875 0 
z
" id="DejaVuSans-46"/>
        <path d="M 37.796875 64.3125 
L 12.890625 25.390625 
L 37.796875 25.390625 
z
M 35.203125 72.90625 
L 47.609375 72.90625 
L 47.609375 25.390625 
L 58.015625 25.390625 
L 58.015625 17.1875 
L 47.609375 17.1875 
L 47.609375 0 
L 37.796875 0 
L 37.796875 17.1875 
L 4.890625 17.1875 
L 4.890625 26.703125 
z
" id="DejaVuSans-52"/>
       </defs>
       <use xlink:href="#DejaVuSans-48"/>
       <use x="63.623047" xlink:href="#DejaVuSans-46"/>
       <use x="95.410156" xlink:href="#DejaVuSans-52"/>
      </g>
     </g>
    </g>
    <g id="xtick_2">
     <g id="line2d_2">
      <g>
       <use style="stroke:#000000;stroke-width:0.8;" x="102.508103" xlink:href="#md5833444e4" y="239.758125"/>
      </g>
     </g>
     <g id="text_2">
      <!-- 0.5 -->
      <g transform="translate(94.55654 254.356562)scale(0.1 -0.1)">
       <defs>
        <path d="M 10.796875 72.90625 
L 49.515625 72.90625 
L 49.515625 64.59375 
L 19.828125 64.59375 
L 19.828125 46.734375 
Q 21.96875 47.46875 24.109375 47.828125 
Q 26.265625 48.1875 28.421875 48.1875 
Q 40.625 48.1875 47.75 41.5 
Q 54.890625 34.8125 54.890625 23.390625 
Q 54.890625 11.625 47.5625 5.09375 
Q 40.234375 -1.421875 26.90625 -1.421875 
Q 22.3125 -1.421875 17.546875 -0.640625 
Q 12.796875 0.140625 7.71875 1.703125 
L 7.71875 11.625 
Q 12.109375 9.234375 16.796875 8.0625 
Q 21.484375 6.890625 26.703125 6.890625 
Q 35.15625 6.890625 40.078125 11.328125 
Q 45.015625 15.765625 45.015625 23.390625 
Q 45.015625 31 40.078125 35.4375 
Q 35.15625 39.890625 26.703125 39.890625 
Q 22.75 39.890625 18.8125 39.015625 
Q 14.890625 38.140625 10.796875 36.28125 
z
" id="DejaVuSans-53"/>
       </defs>
       <use xlink:href="#DejaVuSans-48"/>
       <use x="63.623047" xlink:href="#DejaVuSans-46"/>
       <use x="95.410156" xlink:href="#DejaVuSans-53"/>
      </g>
     </g>
    </g>
    <g id="xtick_3">
     <g id="line2d_3">
      <g>
       <use style="stroke:#000000;stroke-width:0.8;" x="156.09325" xlink:href="#md5833444e4" y="239.758125"/>
      </g>
     </g>
     <g id="text_3">
      <!-- 0.6 -->
      <g transform="translate(148.141687 254.356562)scale(0.1 -0.1)">
       <defs>
        <path d="M 33.015625 40.375 
Q 26.375 40.375 22.484375 35.828125 
Q 18.609375 31.296875 18.609375 23.390625 
Q 18.609375 15.53125 22.484375 10.953125 
Q 26.375 6.390625 33.015625 6.390625 
Q 39.65625 6.390625 43.53125 10.953125 
Q 47.40625 15.53125 47.40625 23.390625 
Q 47.40625 31.296875 43.53125 35.828125 
Q 39.65625 40.375 33.015625 40.375 
z
M 52.59375 71.296875 
L 52.59375 62.3125 
Q 48.875 64.0625 45.09375 64.984375 
Q 41.3125 65.921875 37.59375 65.921875 
Q 27.828125 65.921875 22.671875 59.328125 
Q 17.53125 52.734375 16.796875 39.40625 
Q 19.671875 43.65625 24.015625 45.921875 
Q 28.375 48.1875 33.59375 48.1875 
Q 44.578125 48.1875 50.953125 41.515625 
Q 57.328125 34.859375 57.328125 23.390625 
Q 57.328125 12.15625 50.6875 5.359375 
Q 44.046875 -1.421875 33.015625 -1.421875 
Q 20.359375 -1.421875 13.671875 8.265625 
Q 6.984375 17.96875 6.984375 36.375 
Q 6.984375 53.65625 15.1875 63.9375 
Q 23.390625 74.21875 37.203125 74.21875 
Q 40.921875 74.21875 44.703125 73.484375 
Q 48.484375 72.75 52.59375 71.296875 
z
" id="DejaVuSans-54"/>
       </defs>
       <use xlink:href="#DejaVuSans-48"/>
       <use x="63.623047" xlink:href="#DejaVuSans-46"/>
       <use x="95.410156" xlink:href="#DejaVuSans-54"/>
      </g>
     </g>
    </g>
    <g id="xtick_4">
     <g id="line2d_4">
      <g>
       <use style="stroke:#000000;stroke-width:0.8;" x="209.678397" xlink:href="#md5833444e4" y="239.758125"/>
      </g>
     </g>
     <g id="text_4">
      <!-- 0.7 -->
      <g transform="translate(201.726835 254.356562)scale(0.1 -0.1)">
       <defs>
        <path d="M 8.203125 72.90625 
L 55.078125 72.90625 
L 55.078125 68.703125 
L 28.609375 0 
L 18.3125 0 
L 43.21875 64.59375 
L 8.203125 64.59375 
z
" id="DejaVuSans-55"/>
       </defs>
       <use xlink:href="#DejaVuSans-48"/>
       <use x="63.623047" xlink:href="#DejaVuSans-46"/>
       <use x="95.410156" xlink:href="#DejaVuSans-55"/>
      </g>
     </g>
    </g>
    <g id="xtick_5">
     <g id="line2d_5">
      <g>
       <use style="stroke:#000000;stroke-width:0.8;" x="263.263544" xlink:href="#md5833444e4" y="239.758125"/>
      </g>
     </g>
     <g id="text_5">
      <!-- 0.8 -->
      <g transform="translate(255.311982 254.356562)scale(0.1 -0.1)">
       <defs>
        <path d="M 31.78125 34.625 
Q 24.75 34.625 20.71875 30.859375 
Q 16.703125 27.09375 16.703125 20.515625 
Q 16.703125 13.921875 20.71875 10.15625 
Q 24.75 6.390625 31.78125 6.390625 
Q 38.8125 6.390625 42.859375 10.171875 
Q 46.921875 13.96875 46.921875 20.515625 
Q 46.921875 27.09375 42.890625 30.859375 
Q 38.875 34.625 31.78125 34.625 
z
M 21.921875 38.8125 
Q 15.578125 40.375 12.03125 44.71875 
Q 8.5 49.078125 8.5 55.328125 
Q 8.5 64.0625 14.71875 69.140625 
Q 20.953125 74.21875 31.78125 74.21875 
Q 42.671875 74.21875 48.875 69.140625 
Q 55.078125 64.0625 55.078125 55.328125 
Q 55.078125 49.078125 51.53125 44.71875 
Q 48 40.375 41.703125 38.8125 
Q 48.828125 37.15625 52.796875 32.3125 
Q 56.78125 27.484375 56.78125 20.515625 
Q 56.78125 9.90625 50.3125 4.234375 
Q 43.84375 -1.421875 31.78125 -1.421875 
Q 19.734375 -1.421875 13.25 4.234375 
Q 6.78125 9.90625 6.78125 20.515625 
Q 6.78125 27.484375 10.78125 32.3125 
Q 14.796875 37.15625 21.921875 38.8125 
z
M 18.3125 54.390625 
Q 18.3125 48.734375 21.84375 45.5625 
Q 25.390625 42.390625 31.78125 42.390625 
Q 38.140625 42.390625 41.71875 45.5625 
Q 45.3125 48.734375 45.3125 54.390625 
Q 45.3125 60.0625 41.71875 63.234375 
Q 38.140625 66.40625 31.78125 66.40625 
Q 25.390625 66.40625 21.84375 63.234375 
Q 18.3125 60.0625 18.3125 54.390625 
z
" id="DejaVuSans-56"/>
       </defs>
       <use xlink:href="#DejaVuSans-48"/>
       <use x="63.623047" xlink:href="#DejaVuSans-46"/>
       <use x="95.410156" xlink:href="#DejaVuSans-56"/>
      </g>
     </g>
    </g>
    <g id="xtick_6">
     <g id="line2d_6">
      <g>
       <use style="stroke:#000000;stroke-width:0.8;" x="316.848692" xlink:href="#md5833444e4" y="239.758125"/>
      </g>
     </g>
     <g id="text_6">
      <!-- 0.9 -->
      <g transform="translate(308.897129 254.356562)scale(0.1 -0.1)">
       <defs>
        <path d="M 10.984375 1.515625 
L 10.984375 10.5 
Q 14.703125 8.734375 18.5 7.8125 
Q 22.3125 6.890625 25.984375 6.890625 
Q 35.75 6.890625 40.890625 13.453125 
Q 46.046875 20.015625 46.78125 33.40625 
Q 43.953125 29.203125 39.59375 26.953125 
Q 35.25 24.703125 29.984375 24.703125 
Q 19.046875 24.703125 12.671875 31.3125 
Q 6.296875 37.9375 6.296875 49.421875 
Q 6.296875 60.640625 12.9375 67.421875 
Q 19.578125 74.21875 30.609375 74.21875 
Q 43.265625 74.21875 49.921875 64.515625 
Q 56.59375 54.828125 56.59375 36.375 
Q 56.59375 19.140625 48.40625 8.859375 
Q 40.234375 -1.421875 26.421875 -1.421875 
Q 22.703125 -1.421875 18.890625 -0.6875 
Q 15.09375 0.046875 10.984375 1.515625 
z
M 30.609375 32.421875 
Q 37.25 32.421875 41.125 36.953125 
Q 45.015625 41.5 45.015625 49.421875 
Q 45.015625 57.28125 41.125 61.84375 
Q 37.25 66.40625 30.609375 66.40625 
Q 23.96875 66.40625 20.09375 61.84375 
Q 16.21875 57.28125 16.21875 49.421875 
Q 16.21875 41.5 20.09375 36.953125 
Q 23.96875 32.421875 30.609375 32.421875 
z
" id="DejaVuSans-57"/>
       </defs>
       <use xlink:href="#DejaVuSans-48"/>
       <use x="63.623047" xlink:href="#DejaVuSans-46"/>
       <use x="95.410156" xlink:href="#DejaVuSans-57"/>
      </g>
     </g>
    </g>
    <g id="text_7">
     <!-- Valence Value From 0 to 1 -->
     <g transform="translate(136.639062 268.034687)scale(0.1 -0.1)">
      <defs>
       <path d="M 28.609375 0 
L 0.78125 72.90625 
L 11.078125 72.90625 
L 34.1875 11.53125 
L 57.328125 72.90625 
L 67.578125 72.90625 
L 39.796875 0 
z
" id="DejaVuSans-86"/>
       <path d="M 34.28125 27.484375 
Q 23.390625 27.484375 19.1875 25 
Q 14.984375 22.515625 14.984375 16.5 
Q 14.984375 11.71875 18.140625 8.90625 
Q 21.296875 6.109375 26.703125 6.109375 
Q 34.1875 6.109375 38.703125 11.40625 
Q 43.21875 16.703125 43.21875 25.484375 
L 43.21875 27.484375 
z
M 52.203125 31.203125 
L 52.203125 0 
L 43.21875 0 
L 43.21875 8.296875 
Q 40.140625 3.328125 35.546875 0.953125 
Q 30.953125 -1.421875 24.3125 -1.421875 
Q 15.921875 -1.421875 10.953125 3.296875 
Q 6 8.015625 6 15.921875 
Q 6 25.140625 12.171875 29.828125 
Q 18.359375 34.515625 30.609375 34.515625 
L 43.21875 34.515625 
L 43.21875 35.40625 
Q 43.21875 41.609375 39.140625 45 
Q 35.0625 48.390625 27.6875 48.390625 
Q 23 48.390625 18.546875 47.265625 
Q 14.109375 46.140625 10.015625 43.890625 
L 10.015625 52.203125 
Q 14.9375 54.109375 19.578125 55.046875 
Q 24.21875 56 28.609375 56 
Q 40.484375 56 46.34375 49.84375 
Q 52.203125 43.703125 52.203125 31.203125 
z
" id="DejaVuSans-97"/>
       <path d="M 9.421875 75.984375 
L 18.40625 75.984375 
L 18.40625 0 
L 9.421875 0 
z
" id="DejaVuSans-108"/>
       <path d="M 56.203125 29.59375 
L 56.203125 25.203125 
L 14.890625 25.203125 
Q 15.484375 15.921875 20.484375 11.0625 
Q 25.484375 6.203125 34.421875 6.203125 
Q 39.59375 6.203125 44.453125 7.46875 
Q 49.3125 8.734375 54.109375 11.28125 
L 54.109375 2.78125 
Q 49.265625 0.734375 44.1875 -0.34375 
Q 39.109375 -1.421875 33.890625 -1.421875 
Q 20.796875 -1.421875 13.15625 6.1875 
Q 5.515625 13.8125 5.515625 26.8125 
Q 5.515625 40.234375 12.765625 48.109375 
Q 20.015625 56 32.328125 56 
Q 43.359375 56 49.78125 48.890625 
Q 56.203125 41.796875 56.203125 29.59375 
z
M 47.21875 32.234375 
Q 47.125 39.59375 43.09375 43.984375 
Q 39.0625 48.390625 32.421875 48.390625 
Q 24.90625 48.390625 20.390625 44.140625 
Q 15.875 39.890625 15.1875 32.171875 
z
" id="DejaVuSans-101"/>
       <path d="M 54.890625 33.015625 
L 54.890625 0 
L 45.90625 0 
L 45.90625 32.71875 
Q 45.90625 40.484375 42.875 44.328125 
Q 39.84375 48.1875 33.796875 48.1875 
Q 26.515625 48.1875 22.3125 43.546875 
Q 18.109375 38.921875 18.109375 30.90625 
L 18.109375 0 
L 9.078125 0 
L 9.078125 54.6875 
L 18.109375 54.6875 
L 18.109375 46.1875 
Q 21.34375 51.125 25.703125 53.5625 
Q 30.078125 56 35.796875 56 
Q 45.21875 56 50.046875 50.171875 
Q 54.890625 44.34375 54.890625 33.015625 
z
" id="DejaVuSans-110"/>
       <path d="M 48.78125 52.59375 
L 48.78125 44.1875 
Q 44.96875 46.296875 41.140625 47.34375 
Q 37.3125 48.390625 33.40625 48.390625 
Q 24.65625 48.390625 19.8125 42.84375 
Q 14.984375 37.3125 14.984375 27.296875 
Q 14.984375 17.28125 19.8125 11.734375 
Q 24.65625 6.203125 33.40625 6.203125 
Q 37.3125 6.203125 41.140625 7.25 
Q 44.96875 8.296875 48.78125 10.40625 
L 48.78125 2.09375 
Q 45.015625 0.34375 40.984375 -0.53125 
Q 36.96875 -1.421875 32.421875 -1.421875 
Q 20.0625 -1.421875 12.78125 6.34375 
Q 5.515625 14.109375 5.515625 27.296875 
Q 5.515625 40.671875 12.859375 48.328125 
Q 20.21875 56 33.015625 56 
Q 37.15625 56 41.109375 55.140625 
Q 45.0625 54.296875 48.78125 52.59375 
z
" id="DejaVuSans-99"/>
       <path id="DejaVuSans-32"/>
       <path d="M 8.5 21.578125 
L 8.5 54.6875 
L 17.484375 54.6875 
L 17.484375 21.921875 
Q 17.484375 14.15625 20.5 10.265625 
Q 23.53125 6.390625 29.59375 6.390625 
Q 36.859375 6.390625 41.078125 11.03125 
Q 45.3125 15.671875 45.3125 23.6875 
L 45.3125 54.6875 
L 54.296875 54.6875 
L 54.296875 0 
L 45.3125 0 
L 45.3125 8.40625 
Q 42.046875 3.421875 37.71875 1 
Q 33.40625 -1.421875 27.6875 -1.421875 
Q 18.265625 -1.421875 13.375 4.4375 
Q 8.5 10.296875 8.5 21.578125 
z
M 31.109375 56 
z
" id="DejaVuSans-117"/>
       <path d="M 9.8125 72.90625 
L 51.703125 72.90625 
L 51.703125 64.59375 
L 19.671875 64.59375 
L 19.671875 43.109375 
L 48.578125 43.109375 
L 48.578125 34.8125 
L 19.671875 34.8125 
L 19.671875 0 
L 9.8125 0 
z
" id="DejaVuSans-70"/>
       <path d="M 41.109375 46.296875 
Q 39.59375 47.171875 37.8125 47.578125 
Q 36.03125 48 33.890625 48 
Q 26.265625 48 22.1875 43.046875 
Q 18.109375 38.09375 18.109375 28.8125 
L 18.109375 0 
L 9.078125 0 
L 9.078125 54.6875 
L 18.109375 54.6875 
L 18.109375 46.1875 
Q 20.953125 51.171875 25.484375 53.578125 
Q 30.03125 56 36.53125 56 
Q 37.453125 56 38.578125 55.875 
Q 39.703125 55.765625 41.0625 55.515625 
z
" id="DejaVuSans-114"/>
       <path d="M 30.609375 48.390625 
Q 23.390625 48.390625 19.1875 42.75 
Q 14.984375 37.109375 14.984375 27.296875 
Q 14.984375 17.484375 19.15625 11.84375 
Q 23.34375 6.203125 30.609375 6.203125 
Q 37.796875 6.203125 41.984375 11.859375 
Q 46.1875 17.53125 46.1875 27.296875 
Q 46.1875 37.015625 41.984375 42.703125 
Q 37.796875 48.390625 30.609375 48.390625 
z
M 30.609375 56 
Q 42.328125 56 49.015625 48.375 
Q 55.71875 40.765625 55.71875 27.296875 
Q 55.71875 13.875 49.015625 6.21875 
Q 42.328125 -1.421875 30.609375 -1.421875 
Q 18.84375 -1.421875 12.171875 6.21875 
Q 5.515625 13.875 5.515625 27.296875 
Q 5.515625 40.765625 12.171875 48.375 
Q 18.84375 56 30.609375 56 
z
" id="DejaVuSans-111"/>
       <path d="M 52 44.1875 
Q 55.375 50.25 60.0625 53.125 
Q 64.75 56 71.09375 56 
Q 79.640625 56 84.28125 50.015625 
Q 88.921875 44.046875 88.921875 33.015625 
L 88.921875 0 
L 79.890625 0 
L 79.890625 32.71875 
Q 79.890625 40.578125 77.09375 44.375 
Q 74.3125 48.1875 68.609375 48.1875 
Q 61.625 48.1875 57.5625 43.546875 
Q 53.515625 38.921875 53.515625 30.90625 
L 53.515625 0 
L 44.484375 0 
L 44.484375 32.71875 
Q 44.484375 40.625 41.703125 44.40625 
Q 38.921875 48.1875 33.109375 48.1875 
Q 26.21875 48.1875 22.15625 43.53125 
Q 18.109375 38.875 18.109375 30.90625 
L 18.109375 0 
L 9.078125 0 
L 9.078125 54.6875 
L 18.109375 54.6875 
L 18.109375 46.1875 
Q 21.1875 51.21875 25.484375 53.609375 
Q 29.78125 56 35.6875 56 
Q 41.65625 56 45.828125 52.96875 
Q 50 49.953125 52 44.1875 
z
" id="DejaVuSans-109"/>
       <path d="M 18.3125 70.21875 
L 18.3125 54.6875 
L 36.8125 54.6875 
L 36.8125 47.703125 
L 18.3125 47.703125 
L 18.3125 18.015625 
Q 18.3125 11.328125 20.140625 9.421875 
Q 21.96875 7.515625 27.59375 7.515625 
L 36.8125 7.515625 
L 36.8125 0 
L 27.59375 0 
Q 17.1875 0 13.234375 3.875 
Q 9.28125 7.765625 9.28125 18.015625 
L 9.28125 47.703125 
L 2.6875 47.703125 
L 2.6875 54.6875 
L 9.28125 54.6875 
L 9.28125 70.21875 
z
" id="DejaVuSans-116"/>
       <path d="M 12.40625 8.296875 
L 28.515625 8.296875 
L 28.515625 63.921875 
L 10.984375 60.40625 
L 10.984375 69.390625 
L 28.421875 72.90625 
L 38.28125 72.90625 
L 38.28125 8.296875 
L 54.390625 8.296875 
L 54.390625 0 
L 12.40625 0 
z
" id="DejaVuSans-49"/>
      </defs>
      <use xlink:href="#DejaVuSans-86"/>
      <use x="60.658203" xlink:href="#DejaVuSans-97"/>
      <use x="121.9375" xlink:href="#DejaVuSans-108"/>
      <use x="149.720703" xlink:href="#DejaVuSans-101"/>
      <use x="211.244141" xlink:href="#DejaVuSans-110"/>
      <use x="274.623047" xlink:href="#DejaVuSans-99"/>
      <use x="329.603516" xlink:href="#DejaVuSans-101"/>
      <use x="391.126953" xlink:href="#DejaVuSans-32"/>
      <use x="422.914062" xlink:href="#DejaVuSans-86"/>
      <use x="483.572266" xlink:href="#DejaVuSans-97"/>
      <use x="544.851562" xlink:href="#DejaVuSans-108"/>
      <use x="572.634766" xlink:href="#DejaVuSans-117"/>
      <use x="636.013672" xlink:href="#DejaVuSans-101"/>
      <use x="697.537109" xlink:href="#DejaVuSans-32"/>
      <use x="729.324219" xlink:href="#DejaVuSans-70"/>
      <use x="779.59375" xlink:href="#DejaVuSans-114"/>
      <use x="818.457031" xlink:href="#DejaVuSans-111"/>
      <use x="879.638672" xlink:href="#DejaVuSans-109"/>
      <use x="977.050781" xlink:href="#DejaVuSans-32"/>
      <use x="1008.837891" xlink:href="#DejaVuSans-48"/>
      <use x="1072.460938" xlink:href="#DejaVuSans-32"/>
      <use x="1104.248047" xlink:href="#DejaVuSans-116"/>
      <use x="1143.457031" xlink:href="#DejaVuSans-111"/>
      <use x="1204.638672" xlink:href="#DejaVuSans-32"/>
      <use x="1236.425781" xlink:href="#DejaVuSans-49"/>
     </g>
    </g>
   </g>
   <g id="matplotlib.axis_2">
    <g id="ytick_1">
     <g id="line2d_7">
      <defs>
       <path d="M 0 0 
L -3.5 0 
" id="me20ef4060b" style="stroke:#000000;stroke-width:0.8;"/>
      </defs>
      <g>
       <use style="stroke:#000000;stroke-width:0.8;" x="34.240625" xlink:href="#me20ef4060b" y="238.794719"/>
      </g>
     </g>
     <g id="text_8">
      <!-- 0 -->
      <g transform="translate(20.878125 242.593937)scale(0.1 -0.1)">
       <use xlink:href="#DejaVuSans-48"/>
      </g>
     </g>
    </g>
    <g id="ytick_2">
     <g id="line2d_8">
      <g>
       <use style="stroke:#000000;stroke-width:0.8;" x="34.240625" xlink:href="#me20ef4060b" y="211.427937"/>
      </g>
     </g>
     <g id="text_9">
      <!-- 1 -->
      <g transform="translate(20.878125 215.227156)scale(0.1 -0.1)">
       <use xlink:href="#DejaVuSans-49"/>
      </g>
     </g>
    </g>
    <g id="ytick_3">
     <g id="line2d_9">
      <g>
       <use style="stroke:#000000;stroke-width:0.8;" x="34.240625" xlink:href="#me20ef4060b" y="184.061155"/>
      </g>
     </g>
     <g id="text_10">
      <!-- 2 -->
      <g transform="translate(20.878125 187.860374)scale(0.1 -0.1)">
       <defs>
        <path d="M 19.1875 8.296875 
L 53.609375 8.296875 
L 53.609375 0 
L 7.328125 0 
L 7.328125 8.296875 
Q 12.9375 14.109375 22.625 23.890625 
Q 32.328125 33.6875 34.8125 36.53125 
Q 39.546875 41.84375 41.421875 45.53125 
Q 43.3125 49.21875 43.3125 52.78125 
Q 43.3125 58.59375 39.234375 62.25 
Q 35.15625 65.921875 28.609375 65.921875 
Q 23.96875 65.921875 18.8125 64.3125 
Q 13.671875 62.703125 7.8125 59.421875 
L 7.8125 69.390625 
Q 13.765625 71.78125 18.9375 73 
Q 24.125 74.21875 28.421875 74.21875 
Q 39.75 74.21875 46.484375 68.546875 
Q 53.21875 62.890625 53.21875 53.421875 
Q 53.21875 48.921875 51.53125 44.890625 
Q 49.859375 40.875 45.40625 35.40625 
Q 44.1875 33.984375 37.640625 27.21875 
Q 31.109375 20.453125 19.1875 8.296875 
z
" id="DejaVuSans-50"/>
       </defs>
       <use xlink:href="#DejaVuSans-50"/>
      </g>
     </g>
    </g>
    <g id="ytick_4">
     <g id="line2d_10">
      <g>
       <use style="stroke:#000000;stroke-width:0.8;" x="34.240625" xlink:href="#me20ef4060b" y="156.694373"/>
      </g>
     </g>
     <g id="text_11">
      <!-- 3 -->
      <g transform="translate(20.878125 160.493592)scale(0.1 -0.1)">
       <defs>
        <path d="M 40.578125 39.3125 
Q 47.65625 37.796875 51.625 33 
Q 55.609375 28.21875 55.609375 21.1875 
Q 55.609375 10.40625 48.1875 4.484375 
Q 40.765625 -1.421875 27.09375 -1.421875 
Q 22.515625 -1.421875 17.65625 -0.515625 
Q 12.796875 0.390625 7.625 2.203125 
L 7.625 11.71875 
Q 11.71875 9.328125 16.59375 8.109375 
Q 21.484375 6.890625 26.8125 6.890625 
Q 36.078125 6.890625 40.9375 10.546875 
Q 45.796875 14.203125 45.796875 21.1875 
Q 45.796875 27.640625 41.28125 31.265625 
Q 36.765625 34.90625 28.71875 34.90625 
L 20.21875 34.90625 
L 20.21875 43.015625 
L 29.109375 43.015625 
Q 36.375 43.015625 40.234375 45.921875 
Q 44.09375 48.828125 44.09375 54.296875 
Q 44.09375 59.90625 40.109375 62.90625 
Q 36.140625 65.921875 28.71875 65.921875 
Q 24.65625 65.921875 20.015625 65.03125 
Q 15.375 64.15625 9.8125 62.3125 
L 9.8125 71.09375 
Q 15.4375 72.65625 20.34375 73.4375 
Q 25.25 74.21875 29.59375 74.21875 
Q 40.828125 74.21875 47.359375 69.109375 
Q 53.90625 64.015625 53.90625 55.328125 
Q 53.90625 49.265625 50.4375 45.09375 
Q 46.96875 40.921875 40.578125 39.3125 
z
" id="DejaVuSans-51"/>
       </defs>
       <use xlink:href="#DejaVuSans-51"/>
      </g>
     </g>
    </g>
    <g id="ytick_5">
     <g id="line2d_11">
      <g>
       <use style="stroke:#000000;stroke-width:0.8;" x="34.240625" xlink:href="#me20ef4060b" y="129.327592"/>
      </g>
     </g>
     <g id="text_12">
      <!-- 4 -->
      <g transform="translate(20.878125 133.12681)scale(0.1 -0.1)">
       <use xlink:href="#DejaVuSans-52"/>
      </g>
     </g>
    </g>
    <g id="ytick_6">
     <g id="line2d_12">
      <g>
       <use style="stroke:#000000;stroke-width:0.8;" x="34.240625" xlink:href="#me20ef4060b" y="101.96081"/>
      </g>
     </g>
     <g id="text_13">
      <!-- 5 -->
      <g transform="translate(20.878125 105.760029)scale(0.1 -0.1)">
       <use xlink:href="#DejaVuSans-53"/>
      </g>
     </g>
    </g>
    <g id="ytick_7">
     <g id="line2d_13">
      <g>
       <use style="stroke:#000000;stroke-width:0.8;" x="34.240625" xlink:href="#me20ef4060b" y="74.594028"/>
      </g>
     </g>
     <g id="text_14">
      <!-- 6 -->
      <g transform="translate(20.878125 78.393247)scale(0.1 -0.1)">
       <use xlink:href="#DejaVuSans-54"/>
      </g>
     </g>
    </g>
    <g id="ytick_8">
     <g id="line2d_14">
      <g>
       <use style="stroke:#000000;stroke-width:0.8;" x="34.240625" xlink:href="#me20ef4060b" y="47.227247"/>
      </g>
     </g>
     <g id="text_15">
      <!-- 7 -->
      <g transform="translate(20.878125 51.026465)scale(0.1 -0.1)">
       <use xlink:href="#DejaVuSans-55"/>
      </g>
     </g>
    </g>
    <g id="text_16">
     <!-- Streams in Millions -->
     <g transform="translate(14.798438 178.170156)rotate(-90)scale(0.1 -0.1)">
      <defs>
       <path d="M 53.515625 70.515625 
L 53.515625 60.890625 
Q 47.90625 63.578125 42.921875 64.890625 
Q 37.9375 66.21875 33.296875 66.21875 
Q 25.25 66.21875 20.875 63.09375 
Q 16.5 59.96875 16.5 54.203125 
Q 16.5 49.359375 19.40625 46.890625 
Q 22.3125 44.4375 30.421875 42.921875 
L 36.375 41.703125 
Q 47.40625 39.59375 52.65625 34.296875 
Q 57.90625 29 57.90625 20.125 
Q 57.90625 9.515625 50.796875 4.046875 
Q 43.703125 -1.421875 29.984375 -1.421875 
Q 24.8125 -1.421875 18.96875 -0.25 
Q 13.140625 0.921875 6.890625 3.21875 
L 6.890625 13.375 
Q 12.890625 10.015625 18.65625 8.296875 
Q 24.421875 6.59375 29.984375 6.59375 
Q 38.421875 6.59375 43.015625 9.90625 
Q 47.609375 13.234375 47.609375 19.390625 
Q 47.609375 24.75 44.3125 27.78125 
Q 41.015625 30.8125 33.5 32.328125 
L 27.484375 33.5 
Q 16.453125 35.6875 11.515625 40.375 
Q 6.59375 45.0625 6.59375 53.421875 
Q 6.59375 63.09375 13.40625 68.65625 
Q 20.21875 74.21875 32.171875 74.21875 
Q 37.3125 74.21875 42.625 73.28125 
Q 47.953125 72.359375 53.515625 70.515625 
z
" id="DejaVuSans-83"/>
       <path d="M 44.28125 53.078125 
L 44.28125 44.578125 
Q 40.484375 46.53125 36.375 47.5 
Q 32.28125 48.484375 27.875 48.484375 
Q 21.1875 48.484375 17.84375 46.4375 
Q 14.5 44.390625 14.5 40.28125 
Q 14.5 37.15625 16.890625 35.375 
Q 19.28125 33.59375 26.515625 31.984375 
L 29.59375 31.296875 
Q 39.15625 29.25 43.1875 25.515625 
Q 47.21875 21.78125 47.21875 15.09375 
Q 47.21875 7.46875 41.1875 3.015625 
Q 35.15625 -1.421875 24.609375 -1.421875 
Q 20.21875 -1.421875 15.453125 -0.5625 
Q 10.6875 0.296875 5.421875 2 
L 5.421875 11.28125 
Q 10.40625 8.6875 15.234375 7.390625 
Q 20.0625 6.109375 24.8125 6.109375 
Q 31.15625 6.109375 34.5625 8.28125 
Q 37.984375 10.453125 37.984375 14.40625 
Q 37.984375 18.0625 35.515625 20.015625 
Q 33.0625 21.96875 24.703125 23.78125 
L 21.578125 24.515625 
Q 13.234375 26.265625 9.515625 29.90625 
Q 5.8125 33.546875 5.8125 39.890625 
Q 5.8125 47.609375 11.28125 51.796875 
Q 16.75 56 26.8125 56 
Q 31.78125 56 36.171875 55.265625 
Q 40.578125 54.546875 44.28125 53.078125 
z
" id="DejaVuSans-115"/>
       <path d="M 9.421875 54.6875 
L 18.40625 54.6875 
L 18.40625 0 
L 9.421875 0 
z
M 9.421875 75.984375 
L 18.40625 75.984375 
L 18.40625 64.59375 
L 9.421875 64.59375 
z
" id="DejaVuSans-105"/>
       <path d="M 9.8125 72.90625 
L 24.515625 72.90625 
L 43.109375 23.296875 
L 61.8125 72.90625 
L 76.515625 72.90625 
L 76.515625 0 
L 66.890625 0 
L 66.890625 64.015625 
L 48.09375 14.015625 
L 38.1875 14.015625 
L 19.390625 64.015625 
L 19.390625 0 
L 9.8125 0 
z
" id="DejaVuSans-77"/>
      </defs>
      <use xlink:href="#DejaVuSans-83"/>
      <use x="63.476562" xlink:href="#DejaVuSans-116"/>
      <use x="102.685547" xlink:href="#DejaVuSans-114"/>
      <use x="141.548828" xlink:href="#DejaVuSans-101"/>
      <use x="203.072266" xlink:href="#DejaVuSans-97"/>
      <use x="264.351562" xlink:href="#DejaVuSans-109"/>
      <use x="361.763672" xlink:href="#DejaVuSans-115"/>
      <use x="413.863281" xlink:href="#DejaVuSans-32"/>
      <use x="445.650391" xlink:href="#DejaVuSans-105"/>
      <use x="473.433594" xlink:href="#DejaVuSans-110"/>
      <use x="536.8125" xlink:href="#DejaVuSans-32"/>
      <use x="568.599609" xlink:href="#DejaVuSans-77"/>
      <use x="654.878906" xlink:href="#DejaVuSans-105"/>
      <use x="682.662109" xlink:href="#DejaVuSans-108"/>
      <use x="710.445312" xlink:href="#DejaVuSans-108"/>
      <use x="738.228516" xlink:href="#DejaVuSans-105"/>
      <use x="766.011719" xlink:href="#DejaVuSans-111"/>
      <use x="827.193359" xlink:href="#DejaVuSans-110"/>
      <use x="890.572266" xlink:href="#DejaVuSans-115"/>
     </g>
    </g>
    <g id="text_17">
     <!-- 1e6 -->
     <g transform="translate(34.240625 19.318125)scale(0.1 -0.1)">
      <use xlink:href="#DejaVuSans-49"/>
      <use x="63.623047" xlink:href="#DejaVuSans-101"/>
      <use x="125.146484" xlink:href="#DejaVuSans-54"/>
     </g>
    </g>
   </g>
   <g id="patch_3">
    <path d="M 34.240625 239.758125 
L 34.240625 22.318125 
" style="fill:none;stroke:#000000;stroke-linecap:square;stroke-linejoin:miter;stroke-width:0.8;"/>
   </g>
   <g id="patch_4">
    <path d="M 369.040625 239.758125 
L 369.040625 22.318125 
" style="fill:none;stroke:#000000;stroke-linecap:square;stroke-linejoin:miter;stroke-width:0.8;"/>
   </g>
   <g id="patch_5">
    <path d="M 34.240625 239.758125 
L 369.040625 239.758125 
" style="fill:none;stroke:#000000;stroke-linecap:square;stroke-linejoin:miter;stroke-width:0.8;"/>
   </g>
   <g id="patch_6">
    <path d="M 34.240625 22.318125 
L 369.040625 22.318125 
" style="fill:none;stroke:#000000;stroke-linecap:square;stroke-linejoin:miter;stroke-width:0.8;"/>
   </g>
   <g id="text_18">
    <!-- Streams Compared to Valence For Song With Valence &gt; .4 -->
    <g transform="translate(26.82875 16.318125)scale(0.12 -0.12)">
     <defs>
      <path d="M 64.40625 67.28125 
L 64.40625 56.890625 
Q 59.421875 61.53125 53.78125 63.8125 
Q 48.140625 66.109375 41.796875 66.109375 
Q 29.296875 66.109375 22.65625 58.46875 
Q 16.015625 50.828125 16.015625 36.375 
Q 16.015625 21.96875 22.65625 14.328125 
Q 29.296875 6.6875 41.796875 6.6875 
Q 48.140625 6.6875 53.78125 8.984375 
Q 59.421875 11.28125 64.40625 15.921875 
L 64.40625 5.609375 
Q 59.234375 2.09375 53.4375 0.328125 
Q 47.65625 -1.421875 41.21875 -1.421875 
Q 24.65625 -1.421875 15.125 8.703125 
Q 5.609375 18.84375 5.609375 36.375 
Q 5.609375 53.953125 15.125 64.078125 
Q 24.65625 74.21875 41.21875 74.21875 
Q 47.75 74.21875 53.53125 72.484375 
Q 59.328125 70.75 64.40625 67.28125 
z
" id="DejaVuSans-67"/>
      <path d="M 18.109375 8.203125 
L 18.109375 -20.796875 
L 9.078125 -20.796875 
L 9.078125 54.6875 
L 18.109375 54.6875 
L 18.109375 46.390625 
Q 20.953125 51.265625 25.265625 53.625 
Q 29.59375 56 35.59375 56 
Q 45.5625 56 51.78125 48.09375 
Q 58.015625 40.1875 58.015625 27.296875 
Q 58.015625 14.40625 51.78125 6.484375 
Q 45.5625 -1.421875 35.59375 -1.421875 
Q 29.59375 -1.421875 25.265625 0.953125 
Q 20.953125 3.328125 18.109375 8.203125 
z
M 48.6875 27.296875 
Q 48.6875 37.203125 44.609375 42.84375 
Q 40.53125 48.484375 33.40625 48.484375 
Q 26.265625 48.484375 22.1875 42.84375 
Q 18.109375 37.203125 18.109375 27.296875 
Q 18.109375 17.390625 22.1875 11.75 
Q 26.265625 6.109375 33.40625 6.109375 
Q 40.53125 6.109375 44.609375 11.75 
Q 48.6875 17.390625 48.6875 27.296875 
z
" id="DejaVuSans-112"/>
      <path d="M 45.40625 46.390625 
L 45.40625 75.984375 
L 54.390625 75.984375 
L 54.390625 0 
L 45.40625 0 
L 45.40625 8.203125 
Q 42.578125 3.328125 38.25 0.953125 
Q 33.9375 -1.421875 27.875 -1.421875 
Q 17.96875 -1.421875 11.734375 6.484375 
Q 5.515625 14.40625 5.515625 27.296875 
Q 5.515625 40.1875 11.734375 48.09375 
Q 17.96875 56 27.875 56 
Q 33.9375 56 38.25 53.625 
Q 42.578125 51.265625 45.40625 46.390625 
z
M 14.796875 27.296875 
Q 14.796875 17.390625 18.875 11.75 
Q 22.953125 6.109375 30.078125 6.109375 
Q 37.203125 6.109375 41.296875 11.75 
Q 45.40625 17.390625 45.40625 27.296875 
Q 45.40625 37.203125 41.296875 42.84375 
Q 37.203125 48.484375 30.078125 48.484375 
Q 22.953125 48.484375 18.875 42.84375 
Q 14.796875 37.203125 14.796875 27.296875 
z
" id="DejaVuSans-100"/>
      <path d="M 45.40625 27.984375 
Q 45.40625 37.75 41.375 43.109375 
Q 37.359375 48.484375 30.078125 48.484375 
Q 22.859375 48.484375 18.828125 43.109375 
Q 14.796875 37.75 14.796875 27.984375 
Q 14.796875 18.265625 18.828125 12.890625 
Q 22.859375 7.515625 30.078125 7.515625 
Q 37.359375 7.515625 41.375 12.890625 
Q 45.40625 18.265625 45.40625 27.984375 
z
M 54.390625 6.78125 
Q 54.390625 -7.171875 48.1875 -13.984375 
Q 42 -20.796875 29.203125 -20.796875 
Q 24.46875 -20.796875 20.265625 -20.09375 
Q 16.0625 -19.390625 12.109375 -17.921875 
L 12.109375 -9.1875 
Q 16.0625 -11.328125 19.921875 -12.34375 
Q 23.78125 -13.375 27.78125 -13.375 
Q 36.625 -13.375 41.015625 -8.765625 
Q 45.40625 -4.15625 45.40625 5.171875 
L 45.40625 9.625 
Q 42.625 4.78125 38.28125 2.390625 
Q 33.9375 0 27.875 0 
Q 17.828125 0 11.671875 7.65625 
Q 5.515625 15.328125 5.515625 27.984375 
Q 5.515625 40.671875 11.671875 48.328125 
Q 17.828125 56 27.875 56 
Q 33.9375 56 38.28125 53.609375 
Q 42.625 51.21875 45.40625 46.390625 
L 45.40625 54.6875 
L 54.390625 54.6875 
z
" id="DejaVuSans-103"/>
      <path d="M 3.328125 72.90625 
L 13.28125 72.90625 
L 28.609375 11.28125 
L 43.890625 72.90625 
L 54.984375 72.90625 
L 70.3125 11.28125 
L 85.59375 72.90625 
L 95.609375 72.90625 
L 77.296875 0 
L 64.890625 0 
L 49.515625 63.28125 
L 33.984375 0 
L 21.578125 0 
z
" id="DejaVuSans-87"/>
      <path d="M 54.890625 33.015625 
L 54.890625 0 
L 45.90625 0 
L 45.90625 32.71875 
Q 45.90625 40.484375 42.875 44.328125 
Q 39.84375 48.1875 33.796875 48.1875 
Q 26.515625 48.1875 22.3125 43.546875 
Q 18.109375 38.921875 18.109375 30.90625 
L 18.109375 0 
L 9.078125 0 
L 9.078125 75.984375 
L 18.109375 75.984375 
L 18.109375 46.1875 
Q 21.34375 51.125 25.703125 53.5625 
Q 30.078125 56 35.796875 56 
Q 45.21875 56 50.046875 50.171875 
Q 54.890625 44.34375 54.890625 33.015625 
z
" id="DejaVuSans-104"/>
      <path d="M 10.59375 49.21875 
L 10.59375 58.109375 
L 73.1875 35.40625 
L 73.1875 27.296875 
L 10.59375 4.59375 
L 10.59375 13.484375 
L 60.890625 31.296875 
z
" id="DejaVuSans-62"/>
     </defs>
     <use xlink:href="#DejaVuSans-83"/>
     <use x="63.476562" xlink:href="#DejaVuSans-116"/>
     <use x="102.685547" xlink:href="#DejaVuSans-114"/>
     <use x="141.548828" xlink:href="#DejaVuSans-101"/>
     <use x="203.072266" xlink:href="#DejaVuSans-97"/>
     <use x="264.351562" xlink:href="#DejaVuSans-109"/>
     <use x="361.763672" xlink:href="#DejaVuSans-115"/>
     <use x="413.863281" xlink:href="#DejaVuSans-32"/>
     <use x="445.650391" xlink:href="#DejaVuSans-67"/>
     <use x="515.474609" xlink:href="#DejaVuSans-111"/>
     <use x="576.65625" xlink:href="#DejaVuSans-109"/>
     <use x="674.068359" xlink:href="#DejaVuSans-112"/>
     <use x="737.544922" xlink:href="#DejaVuSans-97"/>
     <use x="798.824219" xlink:href="#DejaVuSans-114"/>
     <use x="837.6875" xlink:href="#DejaVuSans-101"/>
     <use x="899.210938" xlink:href="#DejaVuSans-100"/>
     <use x="962.6875" xlink:href="#DejaVuSans-32"/>
     <use x="994.474609" xlink:href="#DejaVuSans-116"/>
     <use x="1033.683594" xlink:href="#DejaVuSans-111"/>
     <use x="1094.865234" xlink:href="#DejaVuSans-32"/>
     <use x="1126.652344" xlink:href="#DejaVuSans-86"/>
     <use x="1187.310547" xlink:href="#DejaVuSans-97"/>
     <use x="1248.589844" xlink:href="#DejaVuSans-108"/>
     <use x="1276.373047" xlink:href="#DejaVuSans-101"/>
     <use x="1337.896484" xlink:href="#DejaVuSans-110"/>
     <use x="1401.275391" xlink:href="#DejaVuSans-99"/>
     <use x="1456.255859" xlink:href="#DejaVuSans-101"/>
     <use x="1517.779297" xlink:href="#DejaVuSans-32"/>
     <use x="1549.566406" xlink:href="#DejaVuSans-70"/>
     <use x="1603.460938" xlink:href="#DejaVuSans-111"/>
     <use x="1664.642578" xlink:href="#DejaVuSans-114"/>
     <use x="1705.755859" xlink:href="#DejaVuSans-32"/>
     <use x="1737.542969" xlink:href="#DejaVuSans-83"/>
     <use x="1801.019531" xlink:href="#DejaVuSans-111"/>
     <use x="1862.201172" xlink:href="#DejaVuSans-110"/>
     <use x="1925.580078" xlink:href="#DejaVuSans-103"/>
     <use x="1989.056641" xlink:href="#DejaVuSans-32"/>
     <use x="2020.84375" xlink:href="#DejaVuSans-87"/>
     <use x="2117.470703" xlink:href="#DejaVuSans-105"/>
     <use x="2145.253906" xlink:href="#DejaVuSans-116"/>
     <use x="2184.462891" xlink:href="#DejaVuSans-104"/>
     <use x="2247.841797" xlink:href="#DejaVuSans-32"/>
     <use x="2279.628906" xlink:href="#DejaVuSans-86"/>
     <use x="2340.287109" xlink:href="#DejaVuSans-97"/>
     <use x="2401.566406" xlink:href="#DejaVuSans-108"/>
     <use x="2429.349609" xlink:href="#DejaVuSans-101"/>
     <use x="2490.873047" xlink:href="#DejaVuSans-110"/>
     <use x="2554.251953" xlink:href="#DejaVuSans-99"/>
     <use x="2609.232422" xlink:href="#DejaVuSans-101"/>
     <use x="2670.755859" xlink:href="#DejaVuSans-32"/>
     <use x="2702.542969" xlink:href="#DejaVuSans-62"/>
     <use x="2786.332031" xlink:href="#DejaVuSans-32"/>
     <use x="2818.119141" xlink:href="#DejaVuSans-46"/>
     <use x="2849.90625" xlink:href="#DejaVuSans-52"/>
    </g>
   </g>
  </g>
 </g>
 <defs>
  <clipPath id="peb7207bf69">
   <rect height="217.44" width="334.8" x="34.240625" y="22.318125"/>
  </clipPath>
 </defs>
</svg>
